<?xml version="1.0" encoding="UTF-8"?>
<svg width="122px" height="124px" viewBox="0 0 122 124" version="1.1" xmlns="http://www.w3.org/2000/svg" xmlns:xlink="http://www.w3.org/1999/xlink">
    <!-- Generator: Sketch 47.1 (45422) - http://www.bohemiancoding.com/sketch -->
    <title>cart_emptystate</title>
    <desc>Created with Sketch.</desc>
    <defs></defs>
    <g id="Popups" stroke="none" stroke-width="1" fill="none" fill-rule="evenodd">
        <g id="cart_empty" transform="translate(-345.000000, -196.000000)">
            <g id="cart_emptystate" transform="translate(345.000000, 196.000000)">
                <path d="M95.038674,121.978261 C100.622547,121.978261 105.149171,117.452444 105.149171,111.869565 C105.149171,106.286687 100.622547,101.76087 95.038674,101.76087 C89.4548006,101.76087 84.9281768,106.286687 84.9281768,111.869565 C84.9281768,117.452444 89.4548006,121.978261 95.038674,121.978261 Z" id="Oval" fill="#E0E0E0"></path>
                <path d="M42.4640884,121.978261 C48.0479618,121.978261 52.5745856,117.452444 52.5745856,111.869565 C52.5745856,106.286687 48.0479618,101.76087 42.4640884,101.76087 C36.880215,101.76087 32.3535912,106.286687 32.3535912,111.869565 C32.3535912,117.452444 36.880215,121.978261 42.4640884,121.978261 Z" id="Oval" fill="#E0E0E0"></path>
                <path d="M37.5807311,72.7826087 L99.9220314,72.7826087 L116.252016,20.2173913 L21.2507461,20.2173913 L37.5807311,72.7826087 Z M15.7598013,16.173913 L121.742961,16.173913 L102.900671,76.826087 L34.6020916,76.826087 L15.7598013,16.173913 Z" id="Combined-Shape" fill="#9A9A9A" fill-rule="nonzero"></path>
                <polygon id="Rectangle" fill="#9A9A9A" fill-rule="nonzero" points="42.6053418 88.9565217 14.9699827 0 0 0 0 4.04347826 11.9913433 4.04347826 39.6267024 93 101.104972 93 101.104972 88.9565217"></polygon>
                <path d="M95.038674,124 C88.3380259,124 82.9060773,118.569019 82.9060773,111.869565 C82.9060773,105.170111 88.3380259,99.7391304 95.038674,99.7391304 C101.739322,99.7391304 107.171271,105.170111 107.171271,111.869565 C107.171271,118.569019 101.739322,124 95.038674,124 Z M95.038674,119.956522 C99.5057728,119.956522 103.127072,116.335868 103.127072,111.869565 C103.127072,107.403262 99.5057728,103.782609 95.038674,103.782609 C90.5715753,103.782609 86.9502762,107.403262 86.9502762,111.869565 C86.9502762,116.335868 90.5715753,119.956522 95.038674,119.956522 Z" id="Oval" fill="#9A9A9A" fill-rule="nonzero"></path>
                <path d="M42.4640884,124 C35.7634403,124 30.3314917,118.569019 30.3314917,111.869565 C30.3314917,105.170111 35.7634403,99.7391304 42.4640884,99.7391304 C49.1647365,99.7391304 54.5966851,105.170111 54.5966851,111.869565 C54.5966851,118.569019 49.1647365,124 42.4640884,124 Z M42.4640884,119.956522 C46.9311871,119.956522 50.5524862,116.335868 50.5524862,111.869565 C50.5524862,107.403262 46.9311871,103.782609 42.4640884,103.782609 C37.9969896,103.782609 34.3756906,107.403262 34.3756906,111.869565 C34.3756906,116.335868 37.9969896,119.956522 42.4640884,119.956522 Z" id="Oval" fill="#9A9A9A" fill-rule="nonzero"></path>
                <path d="M82.9060773,46.5 C78.8112368,46.5 75.4917127,43.1810674 75.4917127,39.0869565 C75.4917127,34.9928457 78.8112368,31.673913 82.9060773,31.673913 C87.0009179,31.673913 90.320442,34.9928457 90.320442,39.0869565 C90.320442,43.1810674 87.0009179,46.5 82.9060773,46.5 Z M82.9060773,42.4565217 C84.7673685,42.4565217 86.2762431,40.947916 86.2762431,39.0869565 C86.2762431,37.225997 84.7673685,35.7173913 82.9060773,35.7173913 C81.0447862,35.7173913 79.5359116,37.225997 79.5359116,39.0869565 C79.5359116,40.947916 81.0447862,42.4565217 82.9060773,42.4565217 Z" id="Oval" fill="#9A9A9A" fill-rule="nonzero"></path>
                <path d="M54.5966851,46.5 C50.5018446,46.5 47.1823204,43.1810674 47.1823204,39.0869565 C47.1823204,34.9928457 50.5018446,31.673913 54.5966851,31.673913 C58.6915256,31.673913 62.0110497,34.9928457 62.0110497,39.0869565 C62.0110497,43.1810674 58.6915256,46.5 54.5966851,46.5 Z M54.5966851,42.4565217 C56.4579762,42.4565217 57.9668508,40.947916 57.9668508,39.0869565 C57.9668508,37.225997 56.4579762,35.7173913 54.5966851,35.7173913 C52.7353939,35.7173913 51.2265193,37.225997 51.2265193,39.0869565 C51.2265193,40.947916 52.7353939,42.4565217 54.5966851,42.4565217 Z" id="Oval" fill="#9A9A9A" fill-rule="nonzero"></path>
                <polygon id="Oval" fill="#9A9A9A" fill-rule="nonzero" points="55.9447514 62 81.558011 62 81.558011 57.9565217 55.9447514 57.9565217"></polygon>
            </g>
        </g>
    </g>
</svg>