<?xml version="1.0" encoding="UTF-8"?>
<svg width="132px" height="69px" viewBox="0 0 132 69" version="1.1" xmlns="http://www.w3.org/2000/svg" xmlns:xlink="http://www.w3.org/1999/xlink">
    <!-- Generator: Sketch 47.1 (45422) - http://www.bohemiancoding.com/sketch -->
    <title>doc_types</title>
    <desc>Created with Sketch.</desc>
    <defs></defs>
    <g id="Landing-Page" stroke="none" stroke-width="1" fill="none" fill-rule="evenodd">
        <g id="landing_visual_editor_empty" transform="translate(-654.000000, -447.000000)" fill="#9A9A9A">
            <g id="image_actions" transform="translate(557.000000, 447.000000)">
                <path d="M119.002164,5.67267305 L140.260378,15.5855411 L154.424873,54.502172 L116.837168,68.1829777 L97,13.6808057 L119.002164,5.67267305 Z M118.357278,8.03574782 L99.5634255,14.8761507 L118.032513,65.6195522 L151.861448,53.3068271 L138.864682,17.5985075 L124.769293,22.7288096 C124.250315,22.9177021 123.676473,22.650115 123.48758,22.1311371 L118.357278,8.03574782 Z M125.024945,20.5074042 L136.851716,16.2028117 L120.720353,8.68063358 L125.024945,20.5074042 Z M115.627217,53.7487777 C115.496287,53.3890498 115.493665,53.0820467 115.619353,52.827759 C115.74504,52.5734714 115.992027,52.3793067 116.36032,52.2452591 C116.715765,52.1158875 117.025201,52.109956 117.288636,52.2274644 C117.552071,52.3449727 117.747692,52.5793048 117.875505,52.9304678 C117.998642,53.2687833 117.997173,53.5712127 117.8711,53.8377652 C117.745027,54.1043177 117.506412,54.3014974 117.155249,54.4293103 C116.795521,54.5602405 116.482484,54.5662705 116.216129,54.4474002 C115.949773,54.32853 115.753471,54.0956581 115.627217,53.7487777 Z M124.486091,51.7101797 C123.642443,52.0172423 122.869366,51.9518644 122.166836,51.5140442 L122.064057,51.5514526 C122.350793,52.12606 122.511305,52.4604659 122.545596,52.5546803 L123.604723,55.4646074 L121.645501,56.177706 L117.881275,45.8355812 L119.474348,45.2557502 L120.08958,46.0866485 L120.179511,46.0539161 C120.378993,45.1762452 120.928386,44.5737559 121.827705,44.2464303 C122.675635,43.937809 123.458647,44.0238196 124.176764,44.5044646 C124.894882,44.9851095 125.465914,45.8078363 125.889879,46.9726694 C126.168885,47.7392324 126.298845,48.4460623 126.279762,49.0931804 C126.26068,49.7402984 126.097216,50.2871913 125.789366,50.7338753 C125.481516,51.1805593 125.047095,51.5059908 124.486091,51.7101797 Z M121.768664,46.042935 C121.284744,46.2190673 120.985609,46.4964714 120.871249,46.8751554 C120.75689,47.2538395 120.820122,47.7873302 121.060948,48.4756435 L121.138103,48.687625 C121.418668,49.4584704 121.734291,49.969207 122.084981,50.2198499 C122.435672,50.4704928 122.859394,50.5054096 123.356161,50.3246011 C124.234069,50.005069 124.4096,49.1215779 123.882762,47.6741015 C123.625578,46.9674931 123.324561,46.4769013 122.979704,46.2023111 C122.634847,45.9277209 122.231171,45.8745961 121.768664,46.042935 Z M135.955506,47.3901608 L133.996284,48.1032594 L132.469551,43.9085964 C132.280949,43.3904169 132.047428,43.0352996 131.768981,42.8432337 C131.490533,42.6511678 131.150039,42.6283937 130.747486,42.7749109 C130.199329,42.9744237 129.869839,43.3016737 129.759007,43.7566708 C129.648174,44.2116679 129.747067,44.8631217 130.055688,45.7110517 L131.285491,49.0899074 L129.326268,49.803006 L126.712353,42.6213318 L128.20907,42.0765712 L128.806779,42.8992982 L128.915982,42.8595518 C129.008134,42.4331779 129.213504,42.0613837 129.5321,41.744158 C129.850696,41.4269322 130.254089,41.1794775 130.742291,41.0017865 C131.577373,40.6978413 132.29339,40.6930553 132.890362,40.9874284 C133.487334,41.2818014 133.940904,41.8550856 134.251083,42.7072981 L135.955506,47.3901608 Z M144.759141,44.2004489 C145.134787,45.2325253 145.118794,46.1246324 144.711164,46.8767969 C144.303533,47.6289614 143.504466,48.2216932 142.313938,48.6550099 C141.264732,49.0368898 140.318272,49.2213323 139.47453,49.2083429 L138.904051,47.640965 C139.907441,47.692843 140.90803,47.5371966 141.905846,47.1740211 C142.912228,46.8077282 143.21746,46.0807183 142.821552,44.9929697 L142.770115,44.8516487 L142.507618,43.9505623 L142.449805,43.9716046 C142.248765,44.8449931 141.698593,45.4453412 140.799273,45.7726668 C139.938496,46.0859641 139.150714,45.9968402 138.435903,45.5052922 C137.721092,45.0137442 137.155609,44.1962721 136.739438,43.0528513 C136.310797,41.8751708 136.22202,40.8684305 136.473104,40.0326002 C136.724188,39.1967699 137.280111,38.6222148 138.140888,38.3089174 C139.023078,37.9878266 139.844639,38.0864797 140.605597,38.6048797 L140.656986,38.5861755 L140.48324,37.6091386 L142.14055,37.0059273 L144.759141,44.2004489 Z M140.940666,43.9825622 C141.46741,43.7908429 141.789319,43.5027249 141.906402,43.1181997 C142.023486,42.7336745 141.958892,42.2031044 141.712618,41.5264733 L141.626111,41.2887972 C141.347105,40.5222342 141.027589,40.0141269 140.667554,39.7644601 C140.30752,39.5147934 139.864137,39.48582 139.337392,39.6775393 C138.41666,40.0126584 138.219716,40.9039428 138.746555,42.3514193 C139.008415,43.070875 139.318583,43.5666231 139.677067,43.8386784 C140.035551,44.1107337 140.456746,44.1586945 140.940666,43.9825622 Z M218.839332,8.00813268 L228.7522,29.2663469 L214.587705,68.1829777 L177,54.502172 L196.837168,0 L218.839332,8.00813268 Z M216.826366,9.40382839 L198.032513,2.56342553 L179.563426,53.3068271 L213.39236,65.6195522 L226.389125,29.9112326 L212.293736,24.7809305 C211.774758,24.592038 211.507171,24.0181956 211.696064,23.4992177 L216.826366,9.40382839 Z M213.917469,23.2435654 L225.74424,27.5481579 L218.222061,11.4167947 L213.917469,23.2435654 Z M188.170326,43.6932519 C188.301256,43.333524 188.496586,43.096661 188.756321,42.9826558 C189.016057,42.8686506 189.330066,42.8786716 189.698359,43.0127192 C190.053804,43.1420908 190.294658,43.3364484 190.420928,43.5957978 C190.547198,43.8551472 190.546427,44.1603988 190.418614,44.5115618 C190.295477,44.8498773 190.099955,45.0806079 189.83204,45.2037606 C189.564126,45.3269133 189.254592,45.3245833 188.903429,45.1967705 C188.543701,45.0658402 188.300025,44.869243 188.172393,44.606973 C188.044761,44.344703 188.044072,44.0401323 188.170326,43.6932519 Z M190.641183,49.2119746 C190.140133,49.0296075 189.729234,48.819431 189.408474,48.5814389 L189.969601,47.0397557 C190.239759,47.2302313 190.531144,47.3823591 190.843764,47.4961437 C191.173515,47.6161631 191.447912,47.6117664 191.666964,47.4829536 C191.886015,47.3541408 192.061004,47.1098741 192.191934,46.7501463 L194.98354,39.0802723 L196.942762,39.793371 L194.045945,47.7523105 C193.768497,48.514591 193.334026,49.0220804 192.742517,49.2747938 C192.151008,49.5275072 191.450571,49.5065676 190.641183,49.2119746 Z M195.575722,37.1934344 C195.807967,36.5553457 196.279528,36.3656757 196.990419,36.6244188 C197.70131,36.8831619 197.940629,37.3315711 197.708384,37.9696598 C197.597716,38.2737155 197.42274,38.4779763 197.183449,38.5824483 C196.944158,38.6869203 196.646794,38.6744707 196.291349,38.5450991 C195.580458,38.286356 195.341918,37.8358056 195.575722,37.1934344 Z M200.787791,49.471402 C199.944144,49.1643394 199.393956,48.6173325 199.137212,47.830365 L199.034433,47.7929565 C198.884736,48.4174421 198.792743,48.7767867 198.758452,48.8710012 L197.699325,51.7809282 L195.740102,51.0678296 L199.504328,40.7257047 L201.097401,41.3055358 L201.034605,42.3375046 L201.124536,42.370237 C201.841504,41.8261263 202.649636,41.7177355 203.548956,42.0450611 C204.396886,42.3536823 204.941421,42.9228806 205.182578,43.7526729 C205.423735,44.5824652 205.332333,45.5797629 204.908368,46.7445961 C204.629362,47.5111591 204.274576,48.1361588 203.843998,48.6196141 C203.413421,49.1030693 202.936664,49.416941 202.413714,49.5612385 C201.890764,49.705536 201.348795,49.6755908 200.787791,49.471402 Z M202.348956,43.3833122 C201.865036,43.2071799 201.457574,43.2274034 201.126556,43.4439833 C200.795538,43.6605632 200.501055,44.1098858 200.2431,44.7919643 L200.165945,45.0039458 C199.88538,45.7747912 199.798866,46.3689166 199.9064,46.7863397 C200.013935,47.2037629 200.316081,47.5028742 200.812848,47.6836826 C201.690755,48.0032147 202.393117,47.439251 202.919956,45.9917745 C203.17714,45.2851662 203.261895,44.7158615 203.174222,44.2838433 C203.086549,43.8518251 202.811463,43.5516511 202.348956,43.3833122 Z M211.992749,53.4187295 C211.617104,54.4508059 211.031418,55.1239198 210.235673,55.4380915 C209.439928,55.7522632 208.446806,55.6926916 207.256278,55.2593748 C206.207072,54.877495 205.363484,54.4104134 204.72549,53.8581161 L205.295969,52.2907382 C206.031264,52.9754458 206.897806,53.4993795 207.895623,53.862555 C208.902004,54.2288479 209.603139,53.8681255 209.999047,52.7803769 L210.050484,52.639056 L210.428607,51.7800541 L210.370793,51.7590118 C209.655384,52.29884 208.848032,52.4050896 207.948712,52.077764 C207.087935,51.7644667 206.541746,51.189817 206.31013,50.3537978 C206.078514,49.5177786 206.17079,48.5280735 206.586962,47.3846527 C207.015602,46.2069722 207.594715,45.3786996 208.324318,44.8998101 C209.053921,44.4209206 209.849099,44.3381258 210.709876,44.6514231 C211.592066,44.972514 212.158006,45.5761761 212.407712,46.4624278 L212.459102,46.4811321 L212.954032,45.6209965 L214.611341,46.2242078 L211.992749,53.4187295 Z M209.207682,50.7973496 C209.734426,50.9890689 210.166222,50.9752769 210.503081,50.7559731 C210.83994,50.5366694 211.131502,50.0887088 211.377775,49.4120778 L211.464282,49.1744016 C211.743288,48.4078386 211.82513,47.8132252 211.70981,47.3905434 C211.59449,46.9678617 211.273463,46.6606658 210.746719,46.4689465 C209.825987,46.1338274 209.102212,46.6899978 208.575374,48.1374742 C208.313513,48.85693 208.232455,49.4360669 208.332196,49.8749024 C208.431937,50.3137379 208.723762,50.6212173 209.207682,50.7973496 Z" id="doc_types"></path>
            </g>
        </g>
    </g>
</svg>