<svg xmlns="http://www.w3.org/2000/svg" width="32" height="32" viewBox="0 0 32 32">
  <path fill="#FFFFFF" fill-rule="evenodd" d="M707.769611,38 L706.087725,36.1320755 L710.629766,32.0424026 L711.178477,32.2201809 C712.191608,32.5484283 713.308747,32.3215033 714.114289,31.5961897 C714.919832,30.870876 715.262286,29.7835771 715.041738,28.7416849 L714.92229,28.1773974 L719.464331,24.0877246 L731.991,38 L737,38 L737,44.1119202 L736.500726,44.4007346 C735.578874,44.9339974 735,45.9160358 735,47 C735,48.0839642 735.578874,49.0660026 736.500726,49.5992654 L737,49.8880798 L737,56 L705,56 L705,49.8880798 L705.499274,49.5992654 C706.421126,49.0660026 707,48.0839642 707,47 C707,45.9160358 706.421126,44.9339974 705.499274,44.4007346 L705,44.1119202 L705,38 L707.769611,38 Z M735,40 L717,40 L717,54 L735,54 L735,51.0005318 C733.758994,50.0696125 733,48.6005074 733,47 C733,45.3994926 733.758994,43.9303875 735,42.9994682 L735,40 Z M707,54 L715,54 L715,40 L707,40 L707,42.9994682 C708.241006,43.9303875 709,45.3994926 709,47 C709,48.6005074 708.241006,50.0696125 707,51.0005318 L707,54 Z M729.299735,38 L726.007609,34.3437237 L721.946903,38 L729.299735,38 Z M724.669348,32.857434 L719.316303,26.9122754 L717.087264,28.9193114 C717.225851,30.4644654 716.641959,32.0115309 715.45255,33.0824793 C714.263142,34.1534278 712.663518,34.5724087 711.141315,34.273068 L708.912275,36.2801039 L710.460877,38 L718.95795,38 L724.669348,32.857434 Z M720,46 L720,44 L730,44 L730,46 L720,46 Z M720,50 L720,48 L726,48 L726,50 L720,50 Z" transform="translate(-705 -24)"/>
</svg>
