<?xml version="1.0" encoding="UTF-8"?>
<svg width="32px" height="32px" viewBox="0 0 32 32" version="1.1" xmlns="http://www.w3.org/2000/svg" xmlns:xlink="http://www.w3.org/1999/xlink">
    <!-- Generator: Sketch 45.2 (43514) - http://www.bohemiancoding.com/sketch -->
    <title>icn_analytics</title>
    <desc>Created with Sketch.</desc>
    <defs></defs>
    <g id="Symbols" stroke="none" stroke-width="1" fill="none" fill-rule="evenodd">
        <g id="bottom_toolbar_event_setup" transform="translate(-801.000000, -24.000000)" fill-rule="nonzero" fill="#9A9A9A">
            <g id="bottom_toolbar" transform="translate(1.000000, 0.000000)">
                <path d="M802,39 L802,47 L804,47 L804,49 L802,49 L802,54 L807,54 L807,52 L809,52 L809,54 L817,54 L817,52 L819,52 L819,54 L827,54 L827,52 L829,52 L829,54 L832,54 L832,56 L800,56 L800,24 L802,24 L802,27 L804,27 L804,29 L802,29 L802,37 L804,37 L804,39 L802,39 Z M809.293415,35.707629 L809.293415,35.707629 C808.90178,35.8950478 808.463147,36 808,36 C806.343146,36 805,34.6568542 805,33 C805,31.3431458 806.343146,30 808,30 C809.656854,30 811,31.3431458 811,33 C811,33.4631465 810.895048,33.9017802 810.707629,34.2934155 L816.706585,40.292371 C817.09822,40.1049522 817.536853,40 818,40 C818.325519,40 818.638929,40.051845 818.932423,40.1477283 L825.482625,31.6324651 C825.177338,31.1626544 825,30.6020369 825,30 C825,28.3431458 826.343146,27 828,27 C829.656854,27 831,28.3431458 831,30 C831,31.6568542 829.656854,33 828,33 C827.674481,33 827.361071,32.948155 827.067577,32.8522717 L820.517375,41.3675349 C820.822662,41.8373456 821,42.3979631 821,43 C821,44.6568542 819.656854,46 818,46 C816.343146,46 815,44.6568542 815,43 C815,42.5368535 815.104952,42.0982198 815.292371,41.7065845 L809.293415,35.707629 Z M828,31 C828.552285,31 829,30.5522847 829,30 C829,29.4477153 828.552285,29 828,29 C827.447715,29 827,29.4477153 827,30 C827,30.5522847 827.447715,31 828,31 Z M818,44 C818.552285,44 819,43.5522847 819,43 C819,42.4477153 818.552285,42 818,42 C817.447715,42 817,42.4477153 817,43 C817,43.5522847 817.447715,44 818,44 Z M808,34 C808.552285,34 809,33.5522847 809,33 C809,32.4477153 808.552285,32 808,32 C807.447715,32 807,32.4477153 807,33 C807,33.5522847 807.447715,34 808,34 Z" id="icn_analytics"></path>
            </g>
        </g>
    </g>
</svg>