<?xml version="1.0" encoding="UTF-8"?>
<svg width="32px" height="32px" viewBox="0 0 32 32" version="1.1" xmlns="http://www.w3.org/2000/svg" xmlns:xlink="http://www.w3.org/1999/xlink">
    <!-- Generator: Sketch 45.2 (43514) - http://www.bohemiancoding.com/sketch -->
    <title>icn_ticket_settings</title>
    <desc>Created with Sketch.</desc>
    <defs></defs>
    <g id="Symbols" stroke="none" stroke-width="1" fill="none" fill-rule="evenodd">
        <g id="bottom_toolbar_event_setup" transform="translate(-705.000000, -24.000000)" fill="#9A9A9A">
            <g id="bottom_toolbar" transform="translate(1.000000, 0.000000)">
                <path d="M706.769611,38 L705.087725,36.1320755 L709.629766,32.0424026 L710.178477,32.2201809 C711.191608,32.5484283 712.308747,32.3215033 713.114289,31.5961897 C713.919832,30.870876 714.262286,29.7835771 714.041738,28.7416849 L713.92229,28.1773974 L718.464331,24.0877246 L730.991,38 L736,38 L736,44.1119202 L735.500726,44.4007346 C734.578874,44.9339974 734,45.9160358 734,47 C734,48.0839642 734.578874,49.0660026 735.500726,49.5992654 L736,49.8880798 L736,56 L704,56 L704,49.8880798 L704.499274,49.5992654 C705.421126,49.0660026 706,48.0839642 706,47 C706,45.9160358 705.421126,44.9339974 704.499274,44.4007346 L704,44.1119202 L704,38 L706.769611,38 Z M734,40 L716,40 L716,54 L734,54 L734,51.0005318 C732.758994,50.0696125 732,48.6005074 732,47 C732,45.3994926 732.758994,43.9303875 734,42.9994682 L734,40 Z M706,54 L714,54 L714,40 L706,40 L706,42.9994682 C707.241006,43.9303875 708,45.3994926 708,47 C708,48.6005074 707.241006,50.0696125 706,51.0005318 L706,54 Z M728.299735,38 L725.007609,34.3437237 L720.946903,38 L728.299735,38 Z M723.669348,32.857434 L718.316303,26.9122754 L716.087264,28.9193114 C716.225851,30.4644654 715.641959,32.0115309 714.45255,33.0824793 C713.263142,34.1534278 711.663518,34.5724087 710.141315,34.273068 L707.912275,36.2801039 L709.460877,38 L717.95795,38 L723.669348,32.857434 Z M719,46 L719,44 L729,44 L729,46 L719,46 Z M719,50 L719,48 L725,48 L725,50 L719,50 Z" id="icn_ticket_settings"></path>
            </g>
        </g>
    </g>
</svg>