<?xml version="1.0" encoding="UTF-8"?>
<svg width="32px" height="32px" viewBox="0 0 32 32" version="1.1" xmlns="http://www.w3.org/2000/svg" xmlns:xlink="http://www.w3.org/1999/xlink">
    <!-- Generator: Sketch 45.2 (43514) - http://www.bohemiancoding.com/sketch -->
    <title>icn_main_setup_white</title>
    <desc>Created with Sketch.</desc>
    <defs></defs>
    <g id="Symbols" stroke="none" stroke-width="1" fill="none" fill-rule="evenodd">
        <g id="bottom_toolbar_event_setup" transform="translate(-513.000000, -24.000000)" fill-rule="nonzero" fill="#FFFFFF">
            <g id="bottom_toolbar" transform="translate(1.000000, 0.000000)">
                <path d="M536,31.5857864 L536,31.5857864 L538.585786,29 C539.366835,28.2189514 540.633165,28.2189514 541.414214,29 L543,30.5857864 C543.781049,31.366835 543.781049,32.633165 543,33.4142136 L536,40.4142136 L536,53 C536,54.6568542 534.656854,56 533,56 L517,56 C515.343146,56 514,54.6568542 514,53 L514,50 L512,50 L512,48 L514,48 L514,41 L512,41 L512,39 L514,39 L514,32 L512,32 L512,30 L514,30 L514,27 C514,25.3431458 515.343146,24 517,24 L533,24 C534.656854,24 536,25.3431458 536,27 L536,31.5857864 Z M525,42.5857864 L534,33.5857864 L534,27 C534,26.4477153 533.552285,26 533,26 L522,26 L522,54 L533,54 C533.552285,54 534,53.5522847 534,53 L534,42.4142136 L529.414214,47 L525,47 L525,42.5857864 Z M538.585786,35 L537,33.4142136 L529.414214,41 L531,42.5857864 L538.585786,35 Z M529.585786,44 L528,42.4142136 L527,43.4142136 L527,45 L528.585786,45 L529.585786,44 Z M541.585786,32 L540,30.4142136 L538.414214,32 L540,33.5857864 L541.585786,32 Z M516,50 L516,53 C516,53.5522847 516.447715,54 517,54 L520,54 L520,26 L517,26 C516.447715,26 516,26.4477153 516,27 L516,30 L518,30 L518,32 L516,32 L516,39 L518,39 L518,41 L516,41 L516,48 L518,48 L518,50 L516,50 L516,50 Z" id="icn_main_setup_white"></path>
            </g>
        </g>
    </g>
</svg>