<?xml version="1.0" encoding="UTF-8"?>
<svg width="40px" height="40px" viewBox="0 0 40 40" version="1.1" xmlns="http://www.w3.org/2000/svg" xmlns:xlink="http://www.w3.org/1999/xlink">
    <!-- Generator: Sketch 45.2 (43514) - http://www.bohemiancoding.com/sketch -->
    <title>icn_visual_editor</title>
    <desc>Created with Sketch.</desc>
    <defs></defs>
    <g id="Working" stroke="none" stroke-width="1" fill="none" fill-rule="evenodd">
        <g id="landing" transform="translate(-535.000000, -942.000000)" fill="#9A9A9A">
            <g id="item" transform="translate(535.000000, 909.000000)">
                <path d="M1.65986752,56.7356357 C3.08041901,55.3592087 4.64132161,54.1531296 6.31248753,53.1339033 L6.31248753,39.25 C6.31248753,37.1789322 4.61676937,35.5 2.52499501,35.5 L0,35.5 L0,33 L2.52499501,33 C4.58993462,33 6.42329846,33.9816789 7.57498504,35.4993907 C8.72667161,33.9816789 10.5600355,33 12.6249751,33 L15.1499701,33 L15.1499701,35.5 L12.6249751,35.5 C10.5332007,35.5 8.83748254,37.1789322 8.83748254,39.2499998 L8.83748254,51.7756969 C12.3304005,50.1340559 16.1947426,49.25 20.1999601,49.25 C27.4187346,49.25 34.1798841,52.1218017 39.133591,57.1249446 L40,58 L39.133591,58.8750554 C34.1798841,63.8781983 27.4187346,66.75 20.1999601,66.75 C16.1947426,66.75 12.3304005,65.8659441 8.83748254,64.2243031 L8.83748254,66.75 C8.83748254,68.8210678 10.5332007,70.5 12.6249751,70.5 L15.1499701,70.5 L15.1499701,73 L12.6249751,73 C10.5600355,73 8.72667161,72.0183211 7.57498504,70.5006093 C6.42329846,72.0183211 4.58993462,73 2.52499501,73 L0,73 L0,70.5 L2.52499501,70.5 C4.61676895,70.5 6.31248685,68.8210685 6.31248753,66.7500014 L6.31248753,62.8660967 C4.48555543,61.7518703 2.79039944,60.4143352 1.26632921,58.8750554 L0.399920203,58 L1.26632921,57.1249446 C1.39608978,56.9938891 1.52719245,56.8642108 1.65961257,56.73593 L1.65986752,56.7356357 Z M25.0459692,52.2353084 L25.0459692,52.2353084 C26.7135993,53.6110642 27.7749451,55.6828137 27.7749451,58 C27.7749451,60.3171863 26.7135993,62.3889358 25.0459692,63.7646916 C29.300772,62.9006417 33.2189064,60.9089353 36.4175256,58 C33.2189064,55.0910647 29.300772,53.0993583 25.0459692,52.2353084 Z M15.353951,63.7646916 L15.353951,63.7646916 C13.6863209,62.3889358 12.6249751,60.3171863 12.6249751,58 C12.6249751,55.6828137 13.6863209,53.6110642 15.353951,52.2353084 C11.0991482,53.0993583 7.18101382,55.0910647 3.98239457,58 C7.18101382,60.9089353 11.0991482,62.9006417 15.353951,63.7646916 Z M20.1999601,63 C22.9889926,63 25.2499501,60.7614237 25.2499501,58 C25.2499501,55.2385763 22.9889926,53 20.1999601,53 C17.4109276,53 15.1499701,55.2385763 15.1499701,58 C15.1499701,60.7614237 17.4109276,63 20.1999601,63 Z" id="icn_visual_editor"></path>
            </g>
        </g>
    </g>
</svg>