<?xml version="1.0" encoding="UTF-8"?>
<svg width="39px" height="40px" viewBox="0 0 39 40" version="1.1" xmlns="http://www.w3.org/2000/svg" xmlns:xlink="http://www.w3.org/1999/xlink">
    <!-- Generator: Sketch 45.2 (43514) - http://www.bohemiancoding.com/sketch -->
    <title>icn_main_setup</title>
    <desc>Created with Sketch.</desc>
    <defs></defs>
    <g id="Working" stroke="none" stroke-width="1" fill="none" fill-rule="evenodd">
        <g id="landing" transform="translate(-135.000000, -942.000000)" fill-rule="nonzero" fill="#9A9A9A">
            <g id="item" transform="translate(135.000000, 909.000000)">
                <path d="M29.6335822,42.482233 L29.6335822,42.482233 L32.826337,39.25 C33.7907232,38.2736893 35.354302,38.2736893 36.3186882,39.25 L38.2767104,41.232233 C39.2410965,42.2085438 39.2410965,43.7914562 38.2767104,44.767767 L29.6335822,53.517767 L29.6335822,69.25 C29.6335822,71.3210678 27.9751564,73 25.9293845,73 L6.17366297,73 C4.12789102,73 2.46946519,71.3210678 2.46946519,69.25 L2.46946519,65.5 L0,65.5 L0,63 L2.46946519,63 L2.46946519,54.25 L0,54.25 L0,51.75 L2.46946519,51.75 L2.46946519,43 L0,43 L0,40.5 L2.46946519,40.5 L2.46946519,36.75 C2.46946519,34.6789322 4.12789102,33 6.17366297,33 L25.9293845,33 C27.9751564,33 29.6335822,34.6789322 29.6335822,36.75 L29.6335822,42.482233 Z M16.0515237,56.232233 L27.1641171,44.982233 L27.1641171,36.75 C27.1641171,36.0596441 26.6113084,35.5 25.9293845,35.5 L12.3473259,35.5 L12.3473259,70.5 L25.9293845,70.5 C26.6113084,70.5 27.1641171,69.9403559 27.1641171,69.25 L27.1641171,56.017767 L21.5018971,61.75 L16.0515237,61.75 L16.0515237,56.232233 Z M32.826337,46.75 L30.8683148,44.767767 L21.5018971,54.25 L23.4599193,56.232233 L32.826337,46.75 Z M21.7137437,58 L19.7557215,56.017767 L18.5209889,57.267767 L18.5209889,59.25 L20.4790111,59.25 L21.7137437,58 Z M36.5305348,43 L34.5725126,41.017767 L32.6144904,43 L34.5725126,44.982233 L36.5305348,43 Z M4.93893037,65.5 L4.93893037,69.25 C4.93893037,69.9403559 5.49173899,70.5 6.17366297,70.5 L9.87786075,70.5 L9.87786075,35.5 L6.17366297,35.5 C5.49173899,35.5 4.93893037,36.0596441 4.93893037,36.75 L4.93893037,40.5 L7.40839556,40.5 L7.40839556,43 L4.93893037,43 L4.93893037,51.75 L7.40839556,51.75 L7.40839556,54.25 L4.93893037,54.25 L4.93893037,63 L7.40839556,63 L7.40839556,65.5 L4.93893037,65.5 Z" id="icn_main_setup"></path>
            </g>
        </g>
    </g>
</svg>