<svg xmlns="http://www.w3.org/2000/svg" width="19" height="20" viewBox="0 0 19 20">
  <path fill="#292929" fill-rule="evenodd" d="M36.957952,124.269275 C36.806308,125.090805 36.1723325,125.77213 35.3964791,125.94546 C35.2988192,125.967733 35.1998029,125.982296 35.101058,126 L19.898942,126 C19.8585217,125.993147 19.8178301,125.984866 19.7774098,125.979726 C18.941604,125.866648 18.2389954,125.195031 18.0528991,124.328669 C18.0311969,124.227584 18.0173618,124.125071 18,124.023415 L18,107.977441 C18.0062393,107.940034 18.0135638,107.902913 18.0184468,107.865505 C18.1383515,106.967733 18.7612045,106.254141 19.6029784,106.052256 C19.693585,106.030554 19.7860906,106.017419 19.8780536,106 L35.1219464,106 C35.1572124,106.006568 35.1922072,106.014849 35.2280158,106.019703 C36.0904068,106.143918 36.792744,106.83952 36.9590371,107.735865 C36.9753137,107.823244 36.9867074,107.911194 37,107.998858 L37,124.001142 C36.9861649,124.090234 36.9742287,124.180468 36.957952,124.269275 Z M20.0557404,123.042547 C20.0557404,123.468304 20.4059595,123.83438 20.8104342,123.83438 C25.2691501,123.834666 29.7275946,123.834666 34.1863105,123.83438 C34.594583,123.83438 34.9429032,123.468875 34.9429032,123.039977 C34.9431745,120.083666 34.9429032,117.127641 34.9429032,114.171616 L34.9429032,114.110223 L33.1291423,114.110223 C33.3852282,114.97173 33.4638987,115.848087 33.363526,116.741291 C33.2626109,117.63478 32.9891632,118.466305 32.5437257,119.234152 C32.0980168,120.002855 31.5201959,120.639635 30.8127043,121.146488 C28.9788689,122.461165 26.5644998,122.576813 24.6186268,121.427184 C23.6349748,120.846659 22.862648,120.037122 22.3241622,118.994003 C21.5209098,117.437464 21.3925955,115.803826 21.8638044,114.108795 C21.2621111,114.109366 20.6628592,114.109366 20.0554691,114.109366 L20.0554691,114.163335 C20.0554691,117.123073 20.0551978,120.08281 20.0557404,123.042547 Z M27.4116992,120.050543 C29.5629292,120.099086 31.3029027,118.289834 31.348206,116.089377 C31.3945944,113.820103 29.6557061,111.945745 27.5001357,111.947173 C25.3928526,111.945745 23.6797356,113.73044 23.6501664,115.938607 C23.6197833,118.206168 25.3442939,120.003712 27.4116992,120.050543 Z M34.942632,110.33181 C34.9429033,109.700457 34.9429033,109.068818 34.942632,108.437464 C34.942632,107.98458 34.6021788,107.624215 34.1724754,107.623929 C33.5743086,107.623644 32.9761418,107.623358 32.3777038,107.623929 C31.9490855,107.6245 31.6075472,107.985722 31.6072759,108.438607 C31.6070047,109.064535 31.605377,109.690463 31.6094462,110.316676 C31.6099887,110.410051 31.6268079,110.507139 31.6550208,110.59566 C31.7624466,110.928898 32.0524422,111.133352 32.4075444,111.135066 C32.6961836,111.135637 32.9848228,111.13478 33.2737332,111.13478 C33.5862448,111.131068 33.8998415,111.13735 34.2126244,111.129355 C34.6149288,111.118789 34.942632,110.755854 34.942632,110.33181 Z" transform="translate(-18 -106)"/>
</svg>
