<svg xmlns="http://www.w3.org/2000/svg" width="22" height="15" viewBox="0 0 22 15">
  <path fill="#292929" fill-rule="evenodd" d="M37.6149336,161.587186 C37.3456901,162.731797 36.3885759,163.575753 35.2369099,163.701642 C32.5088947,163.999829 29.7478236,164.00131 26.9986121,163.999829 C24.249653,164.00131 21.4883294,163.999829 18.7605666,163.701642 C17.6086483,163.575753 16.6520387,162.731797 16.3830476,161.587186 C16,159.957035 16,158.178285 16,156.500247 C16,154.821962 16.0045421,153.042965 16.3873373,151.412814 C16.6565808,150.268203 17.6131903,149.424001 18.7648563,149.298358 C21.4928715,149.000171 24.2539427,148.99869 27.0031542,149.000171 C29.7521132,148.99869 32.5134368,149.000171 35.2411996,149.298358 C36.393118,149.424001 37.3502322,150.268203 37.6192234,151.412814 C38.0022709,153.042965 37.9999998,154.821962 37.9999998,156.500247 C37.9999998,158.178285 37.9977288,159.957035 37.6149336,161.587186 Z M25.0199173,152.529412 L25.0199173,159.406672 L31.1083614,155.968042 L25.0199173,152.529412 Z" transform="translate(-16 -149)"/>
</svg>
