<svg xmlns="http://www.w3.org/2000/svg" width="112" height="80" viewBox="0 0 112 80">
  <g fill="none" fill-rule="evenodd" stroke="#9A9A9A" stroke-width="2">
    <rect width="78" height="16" x="17" y="6" fill="#E0E0E0"/>
    <path d="M56 0L56 12M76 0L76 12M36 0L36 12M112 79L0 79"/>
    <rect width="78" height="57" x="17" y="22"/>
    <rect width="26" height="57" x="43" y="22" fill="#F7F7F7"/>
    <path d="M43 71L43 30M69 71L69 30"/>
    <rect width="26" height="19" x="43" y="41"/>
    <polyline points="51 50 55 54 62 47"/>
    <polyline points="51 69 55 73 62 66"/>
    <polyline points="51 31 55 35 62 28"/>
    <path d="M25 41L87 41M25 60L87 60"/>
  </g>
</svg>
