<svg xmlns="http://www.w3.org/2000/svg" width="435" height="200" viewBox="0 0 435 200">
  <path fill="#D8D8D8" fill-rule="evenodd" d="M435,34.244858 C433.061277,33.6284986 431.079739,32.7551863 428.659033,31.5588162 C422.525826,28.5276409 419.083726,27.50692 412.250008,27.5068172 C405.416289,27.5067144 401.974186,28.5273323 395.840978,31.5583239 C389.833561,34.5271497 386.530872,35.5064304 379.875008,35.5063303 C373.219142,35.5062302 369.916451,34.5268496 363.909033,31.5578423 C357.775826,28.526667 354.333726,27.5059461 347.500008,27.5058433 C340.666289,27.5057405 337.224186,28.5263584 331.090978,31.55735 C325.083561,34.5261758 321.780872,35.5054565 315.125008,35.5053564 C308.469142,35.5052563 305.166451,34.5258758 299.159033,31.5568684 C293.025826,28.5256931 289.583726,27.5049722 282.750008,27.5048694 C275.916289,27.5047666 272.474186,28.5253846 266.340978,31.5563761 C260.333561,34.5252019 257.030872,35.5044826 250.375008,35.5043825 C243.719142,35.5042824 240.416451,34.5249019 234.409033,31.5558945 C228.275826,28.5247193 224.833726,27.5039983 218.000008,27.5038955 C211.166289,27.5037928 207.724186,28.5244107 201.590978,31.5554022 C195.583561,34.5242281 192.280872,35.5035087 185.625008,35.5034086 C178.969142,35.5033085 175.666451,34.523928 169.659033,31.5549206 C163.525826,28.5237454 160.083726,27.5030244 153.250008,27.5029217 C146.416289,27.5028189 142.974186,28.5234368 136.840978,31.5544283 C130.833561,34.5232542 127.530872,35.5025348 120.875008,35.5024347 C114.219142,35.5023346 110.916451,34.5229541 104.909033,31.5539467 C98.775826,28.5227715 95.3337255,27.5020506 88.5000075,27.5019478 C81.6662886,27.501845 78.2241865,28.5224629 72.0909779,31.5534544 C66.0835615,34.5222803 62.780872,35.5015609 56.1250075,35.5014608 C49.4691422,35.5013607 46.166451,34.5219802 40.159033,31.5529729 C34.025826,28.5217976 30.5837255,27.5010767 23.7500075,27.5009739 C16.9162886,27.5008711 13.4741865,28.521489 7.34097785,31.5524806 C4.50332096,32.954832 2.26915079,33.9132702 -1.27897692e-13,34.5342606 L-2.27373675e-12,35.5705335 C2.42545278,34.9341791 4.78246931,33.932328 7.78402215,32.4489803 C13.7914385,29.4801544 17.094128,28.5008738 23.7499925,28.5009739 C30.4058578,28.501074 33.708549,29.4804545 39.715967,32.4494619 C45.849174,35.4806371 49.2912745,36.501358 56.1249925,36.5014608 C62.9587114,36.5015636 66.4008135,35.4809457 72.5340221,32.4499542 C78.5414385,29.4811283 81.844128,28.5018477 88.4999925,28.5019478 C95.1558578,28.5020479 98.458549,29.4814284 104.465967,32.4504358 C110.599174,35.481611 114.041274,36.5023319 120.874992,36.5024347 C127.708711,36.5025375 131.150814,35.4819196 137.284022,32.450928 C143.291439,29.4821022 146.594128,28.5028216 153.249992,28.5029217 C159.905858,28.5030218 163.208549,29.4824023 169.215967,32.4514096 C175.349174,35.4825849 178.791274,36.5033058 185.624992,36.5034086 C192.458711,36.5035114 195.900814,35.4828935 202.034022,32.4519019 C208.041439,29.4830761 211.344128,28.5037954 217.999992,28.5038955 C224.655858,28.5039957 227.958549,29.4833762 233.965967,32.4523835 C240.099174,35.4835588 243.541274,36.5042797 250.374992,36.5043825 C257.208711,36.5044853 260.650814,35.4838674 266.784022,32.4528758 C272.791439,29.48405 276.094128,28.5047693 282.749992,28.5048694 C289.405858,28.5049695 292.708549,29.4843501 298.715967,32.4533574 C304.849174,35.4845327 308.291274,36.5052536 315.124992,36.5053564 C321.958711,36.5054592 325.400814,35.4848413 331.534022,32.4538497 C337.541439,29.4850239 340.844128,28.5057432 347.499992,28.5058433 C354.155858,28.5059434 357.458549,29.4853239 363.465967,32.4543313 C369.599174,35.4855065 373.041274,36.5062275 379.874992,36.5063303 C386.708711,36.506433 390.150814,35.4858151 396.284022,32.4548236 C402.291439,29.4859977 405.594128,28.5067171 412.249992,28.5068172 C418.905858,28.5069173 422.208549,29.4862978 428.215967,32.4553052 C430.804179,33.7344604 432.913148,34.6555863 435,35.2930703 L435,34.244858 L435,34.244858 Z M435,44.244858 C433.061277,43.6284986 431.079739,42.7551863 428.659033,41.5588162 C422.525826,38.5276409 419.083726,37.50692 412.250008,37.5068172 C405.416289,37.5067144 401.974186,38.5273323 395.840978,41.5583239 C389.833561,44.5271497 386.530872,45.5064304 379.875008,45.5063303 C373.219142,45.5062302 369.916451,44.5268496 363.909033,41.5578423 C357.775826,38.526667 354.333726,37.5059461 347.500008,37.5058433 C340.666289,37.5057405 337.224186,38.5263584 331.090978,41.55735 C325.083561,44.5261758 321.780872,45.5054565 315.125008,45.5053564 C308.469142,45.5052563 305.166451,44.5258758 299.159033,41.5568684 C293.025826,38.5256931 289.583726,37.5049722 282.750008,37.5048694 C275.916289,37.5047666 272.474186,38.5253846 266.340978,41.5563761 C260.333561,44.5252019 257.030872,45.5044826 250.375008,45.5043825 C243.719142,45.5042824 240.416451,44.5249019 234.409033,41.5558945 C228.275826,38.5247193 224.833726,37.5039983 218.000008,37.5038955 C211.166289,37.5037928 207.724186,38.5244107 201.590978,41.5554022 C195.583561,44.5242281 192.280872,45.5035087 185.625008,45.5034086 C178.969142,45.5033085 175.666451,44.523928 169.659033,41.5549206 C163.525826,38.5237454 160.083726,37.5030244 153.250008,37.5029217 C146.416289,37.5028189 142.974186,38.5234368 136.840978,41.5544283 C130.833561,44.5232542 127.530872,45.5025348 120.875008,45.5024347 C114.219142,45.5023346 110.916451,44.5229541 104.909033,41.5539467 C98.775826,38.5227715 95.3337255,37.5020506 88.5000075,37.5019478 C81.6662886,37.501845 78.2241865,38.5224629 72.0909779,41.5534544 C66.0835615,44.5222803 62.780872,45.5015609 56.1250075,45.5014608 C49.4691422,45.5013607 46.166451,44.5219802 40.159033,41.5529729 C34.025826,38.5217976 30.5837255,37.5010767 23.7500075,37.5009739 C16.9162886,37.5008711 13.4741865,38.521489 7.34097785,41.5524806 C4.50332096,42.954832 2.26915079,43.9132702 -1.27897692e-13,44.5342606 L-2.27373675e-12,45.5705335 C2.42545278,44.9341791 4.78246931,43.932328 7.78402215,42.4489803 C13.7914385,39.4801544 17.094128,38.5008738 23.7499925,38.5009739 C30.4058578,38.501074 33.708549,39.4804545 39.715967,42.4494619 C45.849174,45.4806371 49.2912745,46.501358 56.1249925,46.5014608 C62.9587114,46.5015636 66.4008135,45.4809457 72.5340221,42.4499542 C78.5414385,39.4811283 81.844128,38.5018477 88.4999925,38.5019478 C95.1558578,38.5020479 98.458549,39.4814284 104.465967,42.4504358 C110.599174,45.481611 114.041274,46.5023319 120.874992,46.5024347 C127.708711,46.5025375 131.150814,45.4819196 137.284022,42.450928 C143.291439,39.4821022 146.594128,38.5028216 153.249992,38.5029217 C159.905858,38.5030218 163.208549,39.4824023 169.215967,42.4514096 C175.349174,45.4825849 178.791274,46.5033058 185.624992,46.5034086 C192.458711,46.5035114 195.900814,45.4828935 202.034022,42.4519019 C208.041439,39.4830761 211.344128,38.5037954 217.999992,38.5038955 C224.655858,38.5039957 227.958549,39.4833762 233.965967,42.4523835 C240.099174,45.4835588 243.541274,46.5042797 250.374992,46.5043825 C257.208711,46.5044853 260.650814,45.4838674 266.784022,42.4528758 C272.791439,39.48405 276.094128,38.5047693 282.749992,38.5048694 C289.405858,38.5049695 292.708549,39.4843501 298.715967,42.4533574 C304.849174,45.4845327 308.291274,46.5052536 315.124992,46.5053564 C321.958711,46.5054592 325.400814,45.4848413 331.534022,42.4538497 C337.541439,39.4850239 340.844128,38.5057432 347.499992,38.5058433 C354.155858,38.5059434 357.458549,39.4853239 363.465967,42.4543313 C369.599174,45.4855065 373.041274,46.5062275 379.874992,46.5063303 C386.708711,46.506433 390.150814,45.4858151 396.284022,42.4548236 C402.291439,39.4859977 405.594128,38.5067171 412.249992,38.5068172 C418.905858,38.5069173 422.208549,39.4862978 428.215967,42.4553052 C430.804179,43.7344604 432.913148,44.6555863 435,45.2930703 L435,44.244858 L435,44.244858 Z M435,54.244858 C433.061277,53.6284986 431.079739,52.7551863 428.659033,51.5588162 C422.525826,48.5276409 419.083726,47.50692 412.250008,47.5068172 C405.416289,47.5067144 401.974186,48.5273323 395.840978,51.5583239 C389.833561,54.5271497 386.530872,55.5064304 379.875008,55.5063303 C373.219142,55.5062302 369.916451,54.5268496 363.909033,51.5578423 C357.775826,48.526667 354.333726,47.5059461 347.500008,47.5058433 C340.666289,47.5057405 337.224186,48.5263584 331.090978,51.55735 C325.083561,54.5261758 321.780872,55.5054565 315.125008,55.5053564 C308.469142,55.5052563 305.166451,54.5258758 299.159033,51.5568684 C293.025826,48.5256931 289.583726,47.5049722 282.750008,47.5048694 C275.916289,47.5047666 272.474186,48.5253846 266.340978,51.5563761 C260.333561,54.5252019 257.030872,55.5044826 250.375008,55.5043825 C243.719142,55.5042824 240.416451,54.5249019 234.409033,51.5558945 C228.275826,48.5247193 224.833726,47.5039983 218.000008,47.5038955 C211.166289,47.5037928 207.724186,48.5244107 201.590978,51.5554022 C195.583561,54.5242281 192.280872,55.5035087 185.625008,55.5034086 C178.969142,55.5033085 175.666451,54.523928 169.659033,51.5549206 C163.525826,48.5237454 160.083726,47.5030244 153.250008,47.5029217 C146.416289,47.5028189 142.974186,48.5234368 136.840978,51.5544283 C130.833561,54.5232542 127.530872,55.5025348 120.875008,55.5024347 C114.219142,55.5023346 110.916451,54.5229541 104.909033,51.5539467 C98.775826,48.5227715 95.3337255,47.5020506 88.5000075,47.5019478 C81.6662886,47.501845 78.2241865,48.5224629 72.0909779,51.5534544 C66.0835615,54.5222803 62.780872,55.5015609 56.1250075,55.5014608 C49.4691422,55.5013607 46.166451,54.5219802 40.159033,51.5529729 C34.025826,48.5217976 30.5837255,47.5010767 23.7500075,47.5009739 C16.9162886,47.5008711 13.4741865,48.521489 7.34097785,51.5524806 C4.50332096,52.954832 2.26915079,53.9132702 -1.27897692e-13,54.5342606 L-2.27373675e-12,55.5705335 C2.42545278,54.9341791 4.78246931,53.932328 7.78402215,52.4489803 C13.7914385,49.4801544 17.094128,48.5008738 23.7499925,48.5009739 C30.4058578,48.501074 33.708549,49.4804545 39.715967,52.4494619 C45.849174,55.4806371 49.2912745,56.501358 56.1249925,56.5014608 C62.9587114,56.5015636 66.4008135,55.4809457 72.5340221,52.4499542 C78.5414385,49.4811283 81.844128,48.5018477 88.4999925,48.5019478 C95.1558578,48.5020479 98.458549,49.4814284 104.465967,52.4504358 C110.599174,55.481611 114.041274,56.5023319 120.874992,56.5024347 C127.708711,56.5025375 131.150814,55.4819196 137.284022,52.450928 C143.291439,49.4821022 146.594128,48.5028216 153.249992,48.5029217 C159.905858,48.5030218 163.208549,49.4824023 169.215967,52.4514096 C175.349174,55.4825849 178.791274,56.5033058 185.624992,56.5034086 C192.458711,56.5035114 195.900814,55.4828935 202.034022,52.4519019 C208.041439,49.4830761 211.344128,48.5037954 217.999992,48.5038955 C224.655858,48.5039957 227.958549,49.4833762 233.965967,52.4523835 C240.099174,55.4835588 243.541274,56.5042797 250.374992,56.5043825 C257.208711,56.5044853 260.650814,55.4838674 266.784022,52.4528758 C272.791439,49.48405 276.094128,48.5047693 282.749992,48.5048694 C289.405858,48.5049695 292.708549,49.4843501 298.715967,52.4533574 C304.849174,55.4845327 308.291274,56.5052536 315.124992,56.5053564 C321.958711,56.5054592 325.400814,55.4848413 331.534022,52.4538497 C337.541439,49.4850239 340.844128,48.5057432 347.499992,48.5058433 C354.155858,48.5059434 357.458549,49.4853239 363.465967,52.4543313 C369.599174,55.4855065 373.041274,56.5062275 379.874992,56.5063303 C386.708711,56.506433 390.150814,55.4858151 396.284022,52.4548236 C402.291439,49.4859977 405.594128,48.5067171 412.249992,48.5068172 C418.905858,48.5069173 422.208549,49.4862978 428.215967,52.4553052 C430.804179,53.7344604 432.913148,54.6555863 435,55.2930703 L435,54.244858 L435,54.244858 Z M435,64.244858 C433.061277,63.6284986 431.079739,62.7551863 428.659033,61.5588162 C422.525826,58.5276409 419.083726,57.50692 412.250008,57.5068172 C405.416289,57.5067144 401.974186,58.5273323 395.840978,61.5583239 C389.833561,64.5271497 386.530872,65.5064304 379.875008,65.5063303 C373.219142,65.5062302 369.916451,64.5268496 363.909033,61.5578423 C357.775826,58.526667 354.333726,57.5059461 347.500008,57.5058433 C340.666289,57.5057405 337.224186,58.5263584 331.090978,61.55735 C325.083561,64.5261758 321.780872,65.5054565 315.125008,65.5053564 C308.469142,65.5052563 305.166451,64.5258758 299.159033,61.5568684 C293.025826,58.5256931 289.583726,57.5049722 282.750008,57.5048694 C275.916289,57.5047666 272.474186,58.5253846 266.340978,61.5563761 C260.333561,64.5252019 257.030872,65.5044826 250.375008,65.5043825 C243.719142,65.5042824 240.416451,64.5249019 234.409033,61.5558945 C228.275826,58.5247193 224.833726,57.5039983 218.000008,57.5038955 C211.166289,57.5037928 207.724186,58.5244107 201.590978,61.5554022 C195.583561,64.5242281 192.280872,65.5035087 185.625008,65.5034086 C178.969142,65.5033085 175.666451,64.523928 169.659033,61.5549206 C163.525826,58.5237454 160.083726,57.5030244 153.250008,57.5029217 C146.416289,57.5028189 142.974186,58.5234368 136.840978,61.5544283 C130.833561,64.5232542 127.530872,65.5025348 120.875008,65.5024347 C114.219142,65.5023346 110.916451,64.5229541 104.909033,61.5539467 C98.775826,58.5227715 95.3337255,57.5020506 88.5000075,57.5019478 C81.6662886,57.501845 78.2241865,58.5224629 72.0909779,61.5534544 C66.0835615,64.5222803 62.780872,65.5015609 56.1250075,65.5014608 C49.4691422,65.5013607 46.166451,64.5219802 40.159033,61.5529729 C34.025826,58.5217976 30.5837255,57.5010767 23.7500075,57.5009739 C16.9162886,57.5008711 13.4741865,58.521489 7.34097785,61.5524806 C4.50332096,62.954832 2.26915079,63.9132702 -1.27897692e-13,64.5342606 L-2.27373675e-12,65.5705335 C2.42545278,64.9341791 4.78246931,63.932328 7.78402215,62.4489803 C13.7914385,59.4801544 17.094128,58.5008738 23.7499925,58.5009739 C30.4058578,58.501074 33.708549,59.4804545 39.715967,62.4494619 C45.849174,65.4806371 49.2912745,66.501358 56.1249925,66.5014608 C62.9587114,66.5015636 66.4008135,65.4809457 72.5340221,62.4499542 C78.5414385,59.4811283 81.844128,58.5018477 88.4999925,58.5019478 C95.1558578,58.5020479 98.458549,59.4814284 104.465967,62.4504358 C110.599174,65.481611 114.041274,66.5023319 120.874992,66.5024347 C127.708711,66.5025375 131.150814,65.4819196 137.284022,62.450928 C143.291439,59.4821022 146.594128,58.5028216 153.249992,58.5029217 C159.905858,58.5030218 163.208549,59.4824023 169.215967,62.4514096 C175.349174,65.4825849 178.791274,66.5033058 185.624992,66.5034086 C192.458711,66.5035114 195.900814,65.4828935 202.034022,62.4519019 C208.041439,59.4830761 211.344128,58.5037954 217.999992,58.5038955 C224.655858,58.5039957 227.958549,59.4833762 233.965967,62.4523835 C240.099174,65.4835588 243.541274,66.5042797 250.374992,66.5043825 C257.208711,66.5044853 260.650814,65.4838674 266.784022,62.4528758 C272.791439,59.48405 276.094128,58.5047693 282.749992,58.5048694 C289.405858,58.5049695 292.708549,59.4843501 298.715967,62.4533574 C304.849174,65.4845327 308.291274,66.5052536 315.124992,66.5053564 C321.958711,66.5054592 325.400814,65.4848413 331.534022,62.4538497 C337.541439,59.4850239 340.844128,58.5057432 347.499992,58.5058433 C354.155858,58.5059434 357.458549,59.4853239 363.465967,62.4543313 C369.599174,65.4855065 373.041274,66.5062275 379.874992,66.5063303 C386.708711,66.506433 390.150814,65.4858151 396.284022,62.4548236 C402.291439,59.4859977 405.594128,58.5067171 412.249992,58.5068172 C418.905858,58.5069173 422.208549,59.4862978 428.215967,62.4553052 C430.804179,63.7344604 432.913148,64.6555863 435,65.2930703 L435,64.244858 L435,64.244858 Z M435,74.244858 C433.061277,73.6284986 431.079739,72.7551863 428.659033,71.5588162 C422.525826,68.5276409 419.083726,67.50692 412.250008,67.5068172 C405.416289,67.5067144 401.974186,68.5273323 395.840978,71.5583239 C389.833561,74.5271497 386.530872,75.5064304 379.875008,75.5063303 C373.219142,75.5062302 369.916451,74.5268496 363.909033,71.5578423 C357.775826,68.526667 354.333726,67.5059461 347.500008,67.5058433 C340.666289,67.5057405 337.224186,68.5263584 331.090978,71.55735 C325.083561,74.5261758 321.780872,75.5054565 315.125008,75.5053564 C308.469142,75.5052563 305.166451,74.5258758 299.159033,71.5568684 C293.025826,68.5256931 289.583726,67.5049722 282.750008,67.5048694 C275.916289,67.5047666 272.474186,68.5253846 266.340978,71.5563761 C260.333561,74.5252019 257.030872,75.5044826 250.375008,75.5043825 C243.719142,75.5042824 240.416451,74.5249019 234.409033,71.5558945 C228.275826,68.5247193 224.833726,67.5039983 218.000008,67.5038955 C211.166289,67.5037928 207.724186,68.5244107 201.590978,71.5554022 C195.583561,74.5242281 192.280872,75.5035087 185.625008,75.5034086 C178.969142,75.5033085 175.666451,74.523928 169.659033,71.5549206 C163.525826,68.5237454 160.083726,67.5030244 153.250008,67.5029217 C146.416289,67.5028189 142.974186,68.5234368 136.840978,71.5544283 C130.833561,74.5232542 127.530872,75.5025348 120.875008,75.5024347 C114.219142,75.5023346 110.916451,74.5229541 104.909033,71.5539467 C98.775826,68.5227715 95.3337255,67.5020506 88.5000075,67.5019478 C81.6662886,67.501845 78.2241865,68.5224629 72.0909779,71.5534544 C66.0835615,74.5222803 62.780872,75.5015609 56.1250075,75.5014608 C49.4691422,75.5013607 46.166451,74.5219802 40.159033,71.5529729 C34.025826,68.5217976 30.5837255,67.5010767 23.7500075,67.5009739 C16.9162886,67.5008711 13.4741865,68.521489 7.34097785,71.5524806 C4.50332096,72.954832 2.26915079,73.9132702 -1.27897692e-13,74.5342606 L-2.27373675e-12,75.5705335 C2.42545278,74.9341791 4.78246931,73.932328 7.78402215,72.4489803 C13.7914385,69.4801544 17.094128,68.5008738 23.7499925,68.5009739 C30.4058578,68.501074 33.708549,69.4804545 39.715967,72.4494619 C45.849174,75.4806371 49.2912745,76.501358 56.1249925,76.5014608 C62.9587114,76.5015636 66.4008135,75.4809457 72.5340221,72.4499542 C78.5414385,69.4811283 81.844128,68.5018477 88.4999925,68.5019478 C95.1558578,68.5020479 98.458549,69.4814284 104.465967,72.4504358 C110.599174,75.481611 114.041274,76.5023319 120.874992,76.5024347 C127.708711,76.5025375 131.150814,75.4819196 137.284022,72.450928 C143.291439,69.4821022 146.594128,68.5028216 153.249992,68.5029217 C159.905858,68.5030218 163.208549,69.4824023 169.215967,72.4514096 C175.349174,75.4825849 178.791274,76.5033058 185.624992,76.5034086 C192.458711,76.5035114 195.900814,75.4828935 202.034022,72.4519019 C208.041439,69.4830761 211.344128,68.5037954 217.999992,68.5038955 C224.655858,68.5039957 227.958549,69.4833762 233.965967,72.4523835 C240.099174,75.4835588 243.541274,76.5042797 250.374992,76.5043825 C257.208711,76.5044853 260.650814,75.4838674 266.784022,72.4528758 C272.791439,69.48405 276.094128,68.5047693 282.749992,68.5048694 C289.405858,68.5049695 292.708549,69.4843501 298.715967,72.4533574 C304.849174,75.4845327 308.291274,76.5052536 315.124992,76.5053564 C321.958711,76.5054592 325.400814,75.4848413 331.534022,72.4538497 C337.541439,69.4850239 340.844128,68.5057432 347.499992,68.5058433 C354.155858,68.5059434 357.458549,69.4853239 363.465967,72.4543313 C369.599174,75.4855065 373.041274,76.5062275 379.874992,76.5063303 C386.708711,76.506433 390.150814,75.4858151 396.284022,72.4548236 C402.291439,69.4859977 405.594128,68.5067171 412.249992,68.5068172 C418.905858,68.5069173 422.208549,69.4862978 428.215967,72.4553052 C430.804179,73.7344604 432.913148,74.6555863 435,75.2930703 L435,74.244858 L435,74.244858 Z M435,84.244858 C433.061277,83.6284986 431.079739,82.7551863 428.659033,81.5588162 C422.525826,78.5276409 419.083726,77.50692 412.250008,77.5068172 C405.416289,77.5067144 401.974186,78.5273323 395.840978,81.5583239 C389.833561,84.5271497 386.530872,85.5064304 379.875008,85.5063303 C373.219142,85.5062302 369.916451,84.5268496 363.909033,81.5578423 C357.775826,78.526667 354.333726,77.5059461 347.500008,77.5058433 C340.666289,77.5057405 337.224186,78.5263584 331.090978,81.55735 C325.083561,84.5261758 321.780872,85.5054565 315.125008,85.5053564 C308.469142,85.5052563 305.166451,84.5258758 299.159033,81.5568684 C293.025826,78.5256931 289.583726,77.5049722 282.750008,77.5048694 C275.916289,77.5047666 272.474186,78.5253846 266.340978,81.5563761 C260.333561,84.5252019 257.030872,85.5044826 250.375008,85.5043825 C243.719142,85.5042824 240.416451,84.5249019 234.409033,81.5558945 C228.275826,78.5247193 224.833726,77.5039983 218.000008,77.5038955 C211.166289,77.5037928 207.724186,78.5244107 201.590978,81.5554022 C195.583561,84.5242281 192.280872,85.5035087 185.625008,85.5034086 C178.969142,85.5033085 175.666451,84.523928 169.659033,81.5549206 C163.525826,78.5237454 160.083726,77.5030244 153.250008,77.5029217 C146.416289,77.5028189 142.974186,78.5234368 136.840978,81.5544283 C130.833561,84.5232542 127.530872,85.5025348 120.875008,85.5024347 C114.219142,85.5023346 110.916451,84.5229541 104.909033,81.5539467 C98.775826,78.5227715 95.3337255,77.5020506 88.5000075,77.5019478 C81.6662886,77.501845 78.2241865,78.5224629 72.0909779,81.5534544 C66.0835615,84.5222803 62.780872,85.5015609 56.1250075,85.5014608 C49.4691422,85.5013607 46.166451,84.5219802 40.159033,81.5529729 C34.025826,78.5217976 30.5837255,77.5010767 23.7500075,77.5009739 C16.9162886,77.5008711 13.4741865,78.521489 7.34097785,81.5524806 C4.50332096,82.954832 2.26915079,83.9132702 -1.27897692e-13,84.5342606 L-2.27373675e-12,85.5705335 C2.42545278,84.9341791 4.78246931,83.932328 7.78402215,82.4489803 C13.7914385,79.4801544 17.094128,78.5008738 23.7499925,78.5009739 C30.4058578,78.501074 33.708549,79.4804545 39.715967,82.4494619 C45.849174,85.4806371 49.2912745,86.501358 56.1249925,86.5014608 C62.9587114,86.5015636 66.4008135,85.4809457 72.5340221,82.4499542 C78.5414385,79.4811283 81.844128,78.5018477 88.4999925,78.5019478 C95.1558578,78.5020479 98.458549,79.4814284 104.465967,82.4504358 C110.599174,85.481611 114.041274,86.5023319 120.874992,86.5024347 C127.708711,86.5025375 131.150814,85.4819196 137.284022,82.450928 C143.291439,79.4821022 146.594128,78.5028216 153.249992,78.5029217 C159.905858,78.5030218 163.208549,79.4824023 169.215967,82.4514096 C175.349174,85.4825849 178.791274,86.5033058 185.624992,86.5034086 C192.458711,86.5035114 195.900814,85.4828935 202.034022,82.4519019 C208.041439,79.4830761 211.344128,78.5037954 217.999992,78.5038955 C224.655858,78.5039957 227.958549,79.4833762 233.965967,82.4523835 C240.099174,85.4835588 243.541274,86.5042797 250.374992,86.5043825 C257.208711,86.5044853 260.650814,85.4838674 266.784022,82.4528758 C272.791439,79.48405 276.094128,78.5047693 282.749992,78.5048694 C289.405858,78.5049695 292.708549,79.4843501 298.715967,82.4533574 C304.849174,85.4845327 308.291274,86.5052536 315.124992,86.5053564 C321.958711,86.5054592 325.400814,85.4848413 331.534022,82.4538497 C337.541439,79.4850239 340.844128,78.5057432 347.499992,78.5058433 C354.155858,78.5059434 357.458549,79.4853239 363.465967,82.4543313 C369.599174,85.4855065 373.041274,86.5062275 379.874992,86.5063303 C386.708711,86.506433 390.150814,85.4858151 396.284022,82.4548236 C402.291439,79.4859977 405.594128,78.5067171 412.249992,78.5068172 C418.905858,78.5069173 422.208549,79.4862978 428.215967,82.4553052 C430.804179,83.7344604 432.913148,84.6555863 435,85.2930703 L435,84.244858 L435,84.244858 Z M435,94.244858 C433.061277,93.6284986 431.079739,92.7551863 428.659033,91.5588162 C422.525826,88.5276409 419.083726,87.50692 412.250008,87.5068172 C405.416289,87.5067144 401.974186,88.5273323 395.840978,91.5583239 C389.833561,94.5271497 386.530872,95.5064304 379.875008,95.5063303 C373.219142,95.5062302 369.916451,94.5268496 363.909033,91.5578423 C357.775826,88.526667 354.333726,87.5059461 347.500008,87.5058433 C340.666289,87.5057405 337.224186,88.5263584 331.090978,91.55735 C325.083561,94.5261758 321.780872,95.5054565 315.125008,95.5053564 C308.469142,95.5052563 305.166451,94.5258758 299.159033,91.5568684 C293.025826,88.5256931 289.583726,87.5049722 282.750008,87.5048694 C275.916289,87.5047666 272.474186,88.5253846 266.340978,91.5563761 C260.333561,94.5252019 257.030872,95.5044826 250.375008,95.5043825 C243.719142,95.5042824 240.416451,94.5249019 234.409033,91.5558945 C228.275826,88.5247193 224.833726,87.5039983 218.000008,87.5038955 C211.166289,87.5037928 207.724186,88.5244107 201.590978,91.5554022 C195.583561,94.5242281 192.280872,95.5035087 185.625008,95.5034086 C178.969142,95.5033085 175.666451,94.523928 169.659033,91.5549206 C163.525826,88.5237454 160.083726,87.5030244 153.250008,87.5029217 C146.416289,87.5028189 142.974186,88.5234368 136.840978,91.5544283 C130.833561,94.5232542 127.530872,95.5025348 120.875008,95.5024347 C114.219142,95.5023346 110.916451,94.5229541 104.909033,91.5539467 C98.775826,88.5227715 95.3337255,87.5020506 88.5000075,87.5019478 C81.6662886,87.501845 78.2241865,88.5224629 72.0909779,91.5534544 C66.0835615,94.5222803 62.780872,95.5015609 56.1250075,95.5014608 C49.4691422,95.5013607 46.166451,94.5219802 40.159033,91.5529729 C34.025826,88.5217976 30.5837255,87.5010767 23.7500075,87.5009739 C16.9162886,87.5008711 13.4741865,88.521489 7.34097785,91.5524806 C4.50332096,92.954832 2.26915079,93.9132702 -1.27897692e-13,94.5342606 L-2.27373675e-12,95.5705335 C2.42545278,94.9341791 4.78246931,93.932328 7.78402215,92.4489803 C13.7914385,89.4801544 17.094128,88.5008738 23.7499925,88.5009739 C30.4058578,88.501074 33.708549,89.4804545 39.715967,92.4494619 C45.849174,95.4806371 49.2912745,96.501358 56.1249925,96.5014608 C62.9587114,96.5015636 66.4008135,95.4809457 72.5340221,92.4499542 C78.5414385,89.4811283 81.844128,88.5018477 88.4999925,88.5019478 C95.1558578,88.5020479 98.458549,89.4814284 104.465967,92.4504358 C110.599174,95.481611 114.041274,96.5023319 120.874992,96.5024347 C127.708711,96.5025375 131.150814,95.4819196 137.284022,92.450928 C143.291439,89.4821022 146.594128,88.5028216 153.249992,88.5029217 C159.905858,88.5030218 163.208549,89.4824023 169.215967,92.4514096 C175.349174,95.4825849 178.791274,96.5033058 185.624992,96.5034086 C192.458711,96.5035114 195.900814,95.4828935 202.034022,92.4519019 C208.041439,89.4830761 211.344128,88.5037954 217.999992,88.5038955 C224.655858,88.5039957 227.958549,89.4833762 233.965967,92.4523835 C240.099174,95.4835588 243.541274,96.5042797 250.374992,96.5043825 C257.208711,96.5044853 260.650814,95.4838674 266.784022,92.4528758 C272.791439,89.48405 276.094128,88.5047693 282.749992,88.5048694 C289.405858,88.5049695 292.708549,89.4843501 298.715967,92.4533574 C304.849174,95.4845327 308.291274,96.5052536 315.124992,96.5053564 C321.958711,96.5054592 325.400814,95.4848413 331.534022,92.4538497 C337.541439,89.4850239 340.844128,88.5057432 347.499992,88.5058433 C354.155858,88.5059434 357.458549,89.4853239 363.465967,92.4543313 C369.599174,95.4855065 373.041274,96.5062275 379.874992,96.5063303 C386.708711,96.506433 390.150814,95.4858151 396.284022,92.4548236 C402.291439,89.4859977 405.594128,88.5067171 412.249992,88.5068172 C418.905858,88.5069173 422.208549,89.4862978 428.215967,92.4553052 C430.804179,93.7344604 432.913148,94.6555863 435,95.2930703 L435,94.244858 L435,94.244858 Z M435,104.244858 C433.061277,103.628499 431.079739,102.755186 428.659033,101.558816 C422.525826,98.5276409 419.083726,97.50692 412.250008,97.5068172 C405.416289,97.5067144 401.974186,98.5273323 395.840978,101.558324 C389.833561,104.52715 386.530872,105.50643 379.875008,105.50633 C373.219142,105.50623 369.916451,104.52685 363.909033,101.557842 C357.775826,98.526667 354.333726,97.5059461 347.500008,97.5058433 C340.666289,97.5057405 337.224186,98.5263584 331.090978,101.55735 C325.083561,104.526176 321.780872,105.505456 315.125008,105.505356 C308.469142,105.505256 305.166451,104.525876 299.159033,101.556868 C293.025826,98.5256931 289.583726,97.5049722 282.750008,97.5048694 C275.916289,97.5047666 272.474186,98.5253846 266.340978,101.556376 C260.333561,104.525202 257.030872,105.504483 250.375008,105.504382 C243.719142,105.504282 240.416451,104.524902 234.409033,101.555895 C228.275826,98.5247193 224.833726,97.5039983 218.000008,97.5038955 C211.166289,97.5037928 207.724186,98.5244107 201.590978,101.555402 C195.583561,104.524228 192.280872,105.503509 185.625008,105.503409 C178.969142,105.503308 175.666451,104.523928 169.659033,101.554921 C163.525826,98.5237454 160.083726,97.5030244 153.250008,97.5029217 C146.416289,97.5028189 142.974186,98.5234368 136.840978,101.554428 C130.833561,104.523254 127.530872,105.502535 120.875008,105.502435 C114.219142,105.502335 110.916451,104.522954 104.909033,101.553947 C98.775826,98.5227715 95.3337255,97.5020506 88.5000075,97.5019478 C81.6662886,97.501845 78.2241865,98.5224629 72.0909779,101.553454 C66.0835615,104.52228 62.780872,105.501561 56.1250075,105.501461 C49.4691422,105.501361 46.166451,104.52198 40.159033,101.552973 C34.025826,98.5217976 30.5837255,97.5010767 23.7500075,97.5009739 C16.9162886,97.5008711 13.4741865,98.521489 7.34097785,101.552481 C4.50332096,102.954832 2.26915079,103.91327 0,104.534261 L1.13686838e-13,105.570533 C2.42545278,104.934179 4.78246931,103.932328 7.78402215,102.44898 C13.7914385,99.4801544 17.094128,98.5008738 23.7499925,98.5009739 C30.4058578,98.501074 33.708549,99.4804545 39.715967,102.449462 C45.849174,105.480637 49.2912745,106.501358 56.1249925,106.501461 C62.9587114,106.501564 66.4008135,105.480946 72.5340221,102.449954 C78.5414385,99.4811283 81.844128,98.5018477 88.4999925,98.5019478 C95.1558578,98.5020479 98.458549,99.4814284 104.465967,102.450436 C110.599174,105.481611 114.041274,106.502332 120.874992,106.502435 C127.708711,106.502538 131.150814,105.48192 137.284022,102.450928 C143.291439,99.4821022 146.594128,98.5028216 153.249992,98.5029217 C159.905858,98.5030218 163.208549,99.4824023 169.215967,102.45141 C175.349174,105.482585 178.791274,106.503306 185.624992,106.503409 C192.458711,106.503511 195.900814,105.482893 202.034022,102.451902 C208.041439,99.4830761 211.344128,98.5037954 217.999992,98.5038955 C224.655858,98.5039957 227.958549,99.4833762 233.965967,102.452384 C240.099174,105.483559 243.541274,106.50428 250.374992,106.504382 C257.208711,106.504485 260.650814,105.483867 266.784022,102.452876 C272.791439,99.48405 276.094128,98.5047693 282.749992,98.5048694 C289.405858,98.5049695 292.708549,99.4843501 298.715967,102.453357 C304.849174,105.484533 308.291274,106.505254 315.124992,106.505356 C321.958711,106.505459 325.400814,105.484841 331.534022,102.45385 C337.541439,99.4850239 340.844128,98.5057432 347.499992,98.5058433 C354.155858,98.5059434 357.458549,99.4853239 363.465967,102.454331 C369.599174,105.485507 373.041274,106.506227 379.874992,106.50633 C386.708711,106.506433 390.150814,105.485815 396.284022,102.454824 C402.291439,99.4859977 405.594128,98.5067171 412.249992,98.5068172 C418.905858,98.5069173 422.208549,99.4862978 428.215967,102.455305 C430.804179,103.73446 432.913148,104.655586 435,105.29307 L435,104.244858 L435,104.244858 Z M435,114.244858 C433.061277,113.628499 431.079739,112.755186 428.659033,111.558816 C422.525826,108.527641 419.083726,107.50692 412.250008,107.506817 C405.416289,107.506714 401.974186,108.527332 395.840978,111.558324 C389.833561,114.52715 386.530872,115.50643 379.875008,115.50633 C373.219142,115.50623 369.916451,114.52685 363.909033,111.557842 C357.775826,108.526667 354.333726,107.505946 347.500008,107.505843 C340.666289,107.505741 337.224186,108.526358 331.090978,111.55735 C325.083561,114.526176 321.780872,115.505456 315.125008,115.505356 C308.469142,115.505256 305.166451,114.525876 299.159033,111.556868 C293.025826,108.525693 289.583726,107.504972 282.750008,107.504869 C275.916289,107.504767 272.474186,108.525385 266.340978,111.556376 C260.333561,114.525202 257.030872,115.504483 250.375008,115.504382 C243.719142,115.504282 240.416451,114.524902 234.409033,111.555895 C228.275826,108.524719 224.833726,107.503998 218.000008,107.503896 C211.166289,107.503793 207.724186,108.524411 201.590978,111.555402 C195.583561,114.524228 192.280872,115.503509 185.625008,115.503409 C178.969142,115.503308 175.666451,114.523928 169.659033,111.554921 C163.525826,108.523745 160.083726,107.503024 153.250008,107.502922 C146.416289,107.502819 142.974186,108.523437 136.840978,111.554428 C130.833561,114.523254 127.530872,115.502535 120.875008,115.502435 C114.219142,115.502335 110.916451,114.522954 104.909033,111.553947 C98.775826,108.522771 95.3337255,107.502051 88.5000075,107.501948 C81.6662886,107.501845 78.2241865,108.522463 72.0909779,111.553454 C66.0835615,114.52228 62.780872,115.501561 56.1250075,115.501461 C49.4691422,115.501361 46.166451,114.52198 40.159033,111.552973 C34.025826,108.521798 30.5837255,107.501077 23.7500075,107.500974 C16.9162886,107.500871 13.4741865,108.521489 7.34097785,111.552481 C4.50332096,112.954832 2.26915079,113.91327 0,114.534261 L1.13686838e-13,115.570533 C2.42545278,114.934179 4.78246931,113.932328 7.78402215,112.44898 C13.7914385,109.480154 17.094128,108.500874 23.7499925,108.500974 C30.4058578,108.501074 33.708549,109.480455 39.715967,112.449462 C45.849174,115.480637 49.2912745,116.501358 56.1249925,116.501461 C62.9587114,116.501564 66.4008135,115.480946 72.5340221,112.449954 C78.5414385,109.481128 81.844128,108.501848 88.4999925,108.501948 C95.1558578,108.502048 98.458549,109.481428 104.465967,112.450436 C110.599174,115.481611 114.041274,116.502332 120.874992,116.502435 C127.708711,116.502538 131.150814,115.48192 137.284022,112.450928 C143.291439,109.482102 146.594128,108.502822 153.249992,108.502922 C159.905858,108.503022 163.208549,109.482402 169.215967,112.45141 C175.349174,115.482585 178.791274,116.503306 185.624992,116.503409 C192.458711,116.503511 195.900814,115.482893 202.034022,112.451902 C208.041439,109.483076 211.344128,108.503795 217.999992,108.503896 C224.655858,108.503996 227.958549,109.483376 233.965967,112.452384 C240.099174,115.483559 243.541274,116.50428 250.374992,116.504382 C257.208711,116.504485 260.650814,115.483867 266.784022,112.452876 C272.791439,109.48405 276.094128,108.504769 282.749992,108.504869 C289.405858,108.50497 292.708549,109.48435 298.715967,112.453357 C304.849174,115.484533 308.291274,116.505254 315.124992,116.505356 C321.958711,116.505459 325.400814,115.484841 331.534022,112.45385 C337.541439,109.485024 340.844128,108.505743 347.499992,108.505843 C354.155858,108.505943 357.458549,109.485324 363.465967,112.454331 C369.599174,115.485507 373.041274,116.506227 379.874992,116.50633 C386.708711,116.506433 390.150814,115.485815 396.284022,112.454824 C402.291439,109.485998 405.594128,108.506717 412.249992,108.506817 C418.905858,108.506917 422.208549,109.486298 428.215967,112.455305 C430.804179,113.73446 432.913148,114.655586 435,115.29307 L435,114.244858 L435,114.244858 Z M435,124.244858 C433.061277,123.628499 431.079739,122.755186 428.659033,121.558816 C422.525826,118.527641 419.083726,117.50692 412.250008,117.506817 C405.416289,117.506714 401.974186,118.527332 395.840978,121.558324 C389.833561,124.52715 386.530872,125.50643 379.875008,125.50633 C373.219142,125.50623 369.916451,124.52685 363.909033,121.557842 C357.775826,118.526667 354.333726,117.505946 347.500008,117.505843 C340.666289,117.505741 337.224186,118.526358 331.090978,121.55735 C325.083561,124.526176 321.780872,125.505456 315.125008,125.505356 C308.469142,125.505256 305.166451,124.525876 299.159033,121.556868 C293.025826,118.525693 289.583726,117.504972 282.750008,117.504869 C275.916289,117.504767 272.474186,118.525385 266.340978,121.556376 C260.333561,124.525202 257.030872,125.504483 250.375008,125.504382 C243.719142,125.504282 240.416451,124.524902 234.409033,121.555895 C228.275826,118.524719 224.833726,117.503998 218.000008,117.503896 C211.166289,117.503793 207.724186,118.524411 201.590978,121.555402 C195.583561,124.524228 192.280872,125.503509 185.625008,125.503409 C178.969142,125.503308 175.666451,124.523928 169.659033,121.554921 C163.525826,118.523745 160.083726,117.503024 153.250008,117.502922 C146.416289,117.502819 142.974186,118.523437 136.840978,121.554428 C130.833561,124.523254 127.530872,125.502535 120.875008,125.502435 C114.219142,125.502335 110.916451,124.522954 104.909033,121.553947 C98.775826,118.522771 95.3337255,117.502051 88.5000075,117.501948 C81.6662886,117.501845 78.2241865,118.522463 72.0909779,121.553454 C66.0835615,124.52228 62.780872,125.501561 56.1250075,125.501461 C49.4691422,125.501361 46.166451,124.52198 40.159033,121.552973 C34.025826,118.521798 30.5837255,117.501077 23.7500075,117.500974 C16.9162886,117.500871 13.4741865,118.521489 7.34097785,121.552481 C4.50332096,122.954832 2.26915079,123.91327 -1.27897692e-13,124.534261 L-2.27373675e-12,125.570533 C2.42545278,124.934179 4.78246931,123.932328 7.78402215,122.44898 C13.7914385,119.480154 17.094128,118.500874 23.7499925,118.500974 C30.4058578,118.501074 33.708549,119.480455 39.715967,122.449462 C45.849174,125.480637 49.2912745,126.501358 56.1249925,126.501461 C62.9587114,126.501564 66.4008135,125.480946 72.5340221,122.449954 C78.5414385,119.481128 81.844128,118.501848 88.4999925,118.501948 C95.1558578,118.502048 98.458549,119.481428 104.465967,122.450436 C110.599174,125.481611 114.041274,126.502332 120.874992,126.502435 C127.708711,126.502538 131.150814,125.48192 137.284022,122.450928 C143.291439,119.482102 146.594128,118.502822 153.249992,118.502922 C159.905858,118.503022 163.208549,119.482402 169.215967,122.45141 C175.349174,125.482585 178.791274,126.503306 185.624992,126.503409 C192.458711,126.503511 195.900814,125.482893 202.034022,122.451902 C208.041439,119.483076 211.344128,118.503795 217.999992,118.503896 C224.655858,118.503996 227.958549,119.483376 233.965967,122.452384 C240.099174,125.483559 243.541274,126.50428 250.374992,126.504382 C257.208711,126.504485 260.650814,125.483867 266.784022,122.452876 C272.791439,119.48405 276.094128,118.504769 282.749992,118.504869 C289.405858,118.50497 292.708549,119.48435 298.715967,122.453357 C304.849174,125.484533 308.291274,126.505254 315.124992,126.505356 C321.958711,126.505459 325.400814,125.484841 331.534022,122.45385 C337.541439,119.485024 340.844128,118.505743 347.499992,118.505843 C354.155858,118.505943 357.458549,119.485324 363.465967,122.454331 C369.599174,125.485507 373.041274,126.506227 379.874992,126.50633 C386.708711,126.506433 390.150814,125.485815 396.284022,122.454824 C402.291439,119.485998 405.594128,118.506717 412.249992,118.506817 C418.905858,118.506917 422.208549,119.486298 428.215967,122.455305 C430.804179,123.73446 432.913148,124.655586 435,125.29307 L435,124.244858 L435,124.244858 Z M435,134.244858 C433.061277,133.628499 431.079739,132.755186 428.659033,131.558816 C422.525826,128.527641 419.083726,127.50692 412.250008,127.506817 C405.416289,127.506714 401.974186,128.527332 395.840978,131.558324 C389.833561,134.52715 386.530872,135.50643 379.875008,135.50633 C373.219142,135.50623 369.916451,134.52685 363.909033,131.557842 C357.775826,128.526667 354.333726,127.505946 347.500008,127.505843 C340.666289,127.505741 337.224186,128.526358 331.090978,131.55735 C325.083561,134.526176 321.780872,135.505456 315.125008,135.505356 C308.469142,135.505256 305.166451,134.525876 299.159033,131.556868 C293.025826,128.525693 289.583726,127.504972 282.750008,127.504869 C275.916289,127.504767 272.474186,128.525385 266.340978,131.556376 C260.333561,134.525202 257.030872,135.504483 250.375008,135.504382 C243.719142,135.504282 240.416451,134.524902 234.409033,131.555895 C228.275826,128.524719 224.833726,127.503998 218.000008,127.503896 C211.166289,127.503793 207.724186,128.524411 201.590978,131.555402 C195.583561,134.524228 192.280872,135.503509 185.625008,135.503409 C178.969142,135.503308 175.666451,134.523928 169.659033,131.554921 C163.525826,128.523745 160.083726,127.503024 153.250008,127.502922 C146.416289,127.502819 142.974186,128.523437 136.840978,131.554428 C130.833561,134.523254 127.530872,135.502535 120.875008,135.502435 C114.219142,135.502335 110.916451,134.522954 104.909033,131.553947 C98.775826,128.522771 95.3337255,127.502051 88.5000075,127.501948 C81.6662886,127.501845 78.2241865,128.522463 72.0909779,131.553454 C66.0835615,134.52228 62.780872,135.501561 56.1250075,135.501461 C49.4691422,135.501361 46.166451,134.52198 40.159033,131.552973 C34.025826,128.521798 30.5837255,127.501077 23.7500075,127.500974 C16.9162886,127.500871 13.4741865,128.521489 7.34097785,131.552481 C4.50332096,132.954832 2.26915079,133.91327 -1.27897692e-13,134.534261 L-2.27373675e-12,135.570533 C2.42545278,134.934179 4.78246931,133.932328 7.78402215,132.44898 C13.7914385,129.480154 17.094128,128.500874 23.7499925,128.500974 C30.4058578,128.501074 33.708549,129.480455 39.715967,132.449462 C45.849174,135.480637 49.2912745,136.501358 56.1249925,136.501461 C62.9587114,136.501564 66.4008135,135.480946 72.5340221,132.449954 C78.5414385,129.481128 81.844128,128.501848 88.4999925,128.501948 C95.1558578,128.502048 98.458549,129.481428 104.465967,132.450436 C110.599174,135.481611 114.041274,136.502332 120.874992,136.502435 C127.708711,136.502538 131.150814,135.48192 137.284022,132.450928 C143.291439,129.482102 146.594128,128.502822 153.249992,128.502922 C159.905858,128.503022 163.208549,129.482402 169.215967,132.45141 C175.349174,135.482585 178.791274,136.503306 185.624992,136.503409 C192.458711,136.503511 195.900814,135.482893 202.034022,132.451902 C208.041439,129.483076 211.344128,128.503795 217.999992,128.503896 C224.655858,128.503996 227.958549,129.483376 233.965967,132.452384 C240.099174,135.483559 243.541274,136.50428 250.374992,136.504382 C257.208711,136.504485 260.650814,135.483867 266.784022,132.452876 C272.791439,129.48405 276.094128,128.504769 282.749992,128.504869 C289.405858,128.50497 292.708549,129.48435 298.715967,132.453357 C304.849174,135.484533 308.291274,136.505254 315.124992,136.505356 C321.958711,136.505459 325.400814,135.484841 331.534022,132.45385 C337.541439,129.485024 340.844128,128.505743 347.499992,128.505843 C354.155858,128.505943 357.458549,129.485324 363.465967,132.454331 C369.599174,135.485507 373.041274,136.506227 379.874992,136.50633 C386.708711,136.506433 390.150814,135.485815 396.284022,132.454824 C402.291439,129.485998 405.594128,128.506717 412.249992,128.506817 C418.905858,128.506917 422.208549,129.486298 428.215967,132.455305 C430.804179,133.73446 432.913148,134.655586 435,135.29307 L435,134.244858 L435,134.244858 Z M435,144.244858 C433.061277,143.628499 431.079739,142.755186 428.659033,141.558816 C422.525826,138.527641 419.083726,137.50692 412.250008,137.506817 C405.416289,137.506714 401.974186,138.527332 395.840978,141.558324 C389.833561,144.52715 386.530872,145.50643 379.875008,145.50633 C373.219142,145.50623 369.916451,144.52685 363.909033,141.557842 C357.775826,138.526667 354.333726,137.505946 347.500008,137.505843 C340.666289,137.505741 337.224186,138.526358 331.090978,141.55735 C325.083561,144.526176 321.780872,145.505456 315.125008,145.505356 C308.469142,145.505256 305.166451,144.525876 299.159033,141.556868 C293.025826,138.525693 289.583726,137.504972 282.750008,137.504869 C275.916289,137.504767 272.474186,138.525385 266.340978,141.556376 C260.333561,144.525202 257.030872,145.504483 250.375008,145.504382 C243.719142,145.504282 240.416451,144.524902 234.409033,141.555895 C228.275826,138.524719 224.833726,137.503998 218.000008,137.503896 C211.166289,137.503793 207.724186,138.524411 201.590978,141.555402 C195.583561,144.524228 192.280872,145.503509 185.625008,145.503409 C178.969142,145.503308 175.666451,144.523928 169.659033,141.554921 C163.525826,138.523745 160.083726,137.503024 153.250008,137.502922 C146.416289,137.502819 142.974186,138.523437 136.840978,141.554428 C130.833561,144.523254 127.530872,145.502535 120.875008,145.502435 C114.219142,145.502335 110.916451,144.522954 104.909033,141.553947 C98.775826,138.522771 95.3337255,137.502051 88.5000075,137.501948 C81.6662886,137.501845 78.2241865,138.522463 72.0909779,141.553454 C66.0835615,144.52228 62.780872,145.501561 56.1250075,145.501461 C49.4691422,145.501361 46.166451,144.52198 40.159033,141.552973 C34.025826,138.521798 30.5837255,137.501077 23.7500075,137.500974 C16.9162886,137.500871 13.4741865,138.521489 7.34097785,141.552481 C4.50332096,142.954832 2.26915079,143.91327 -1.27897692e-13,144.534261 L-2.27373675e-12,145.570533 C2.42545278,144.934179 4.78246931,143.932328 7.78402215,142.44898 C13.7914385,139.480154 17.094128,138.500874 23.7499925,138.500974 C30.4058578,138.501074 33.708549,139.480455 39.715967,142.449462 C45.849174,145.480637 49.2912745,146.501358 56.1249925,146.501461 C62.9587114,146.501564 66.4008135,145.480946 72.5340221,142.449954 C78.5414385,139.481128 81.844128,138.501848 88.4999925,138.501948 C95.1558578,138.502048 98.458549,139.481428 104.465967,142.450436 C110.599174,145.481611 114.041274,146.502332 120.874992,146.502435 C127.708711,146.502538 131.150814,145.48192 137.284022,142.450928 C143.291439,139.482102 146.594128,138.502822 153.249992,138.502922 C159.905858,138.503022 163.208549,139.482402 169.215967,142.45141 C175.349174,145.482585 178.791274,146.503306 185.624992,146.503409 C192.458711,146.503511 195.900814,145.482893 202.034022,142.451902 C208.041439,139.483076 211.344128,138.503795 217.999992,138.503896 C224.655858,138.503996 227.958549,139.483376 233.965967,142.452384 C240.099174,145.483559 243.541274,146.50428 250.374992,146.504382 C257.208711,146.504485 260.650814,145.483867 266.784022,142.452876 C272.791439,139.48405 276.094128,138.504769 282.749992,138.504869 C289.405858,138.50497 292.708549,139.48435 298.715967,142.453357 C304.849174,145.484533 308.291274,146.505254 315.124992,146.505356 C321.958711,146.505459 325.400814,145.484841 331.534022,142.45385 C337.541439,139.485024 340.844128,138.505743 347.499992,138.505843 C354.155858,138.505943 357.458549,139.485324 363.465967,142.454331 C369.599174,145.485507 373.041274,146.506227 379.874992,146.50633 C386.708711,146.506433 390.150814,145.485815 396.284022,142.454824 C402.291439,139.485998 405.594128,138.506717 412.249992,138.506817 C418.905858,138.506917 422.208549,139.486298 428.215967,142.455305 C430.804179,143.73446 432.913148,144.655586 435,145.29307 L435,144.244858 L435,144.244858 Z M435,154.244858 C433.061277,153.628499 431.079739,152.755186 428.659033,151.558816 C422.525826,148.527641 419.083726,147.50692 412.250008,147.506817 C405.416289,147.506714 401.974186,148.527332 395.840978,151.558324 C389.833561,154.52715 386.530872,155.50643 379.875008,155.50633 C373.219142,155.50623 369.916451,154.52685 363.909033,151.557842 C357.775826,148.526667 354.333726,147.505946 347.500008,147.505843 C340.666289,147.505741 337.224186,148.526358 331.090978,151.55735 C325.083561,154.526176 321.780872,155.505456 315.125008,155.505356 C308.469142,155.505256 305.166451,154.525876 299.159033,151.556868 C293.025826,148.525693 289.583726,147.504972 282.750008,147.504869 C275.916289,147.504767 272.474186,148.525385 266.340978,151.556376 C260.333561,154.525202 257.030872,155.504483 250.375008,155.504382 C243.719142,155.504282 240.416451,154.524902 234.409033,151.555895 C228.275826,148.524719 224.833726,147.503998 218.000008,147.503896 C211.166289,147.503793 207.724186,148.524411 201.590978,151.555402 C195.583561,154.524228 192.280872,155.503509 185.625008,155.503409 C178.969142,155.503308 175.666451,154.523928 169.659033,151.554921 C163.525826,148.523745 160.083726,147.503024 153.250008,147.502922 C146.416289,147.502819 142.974186,148.523437 136.840978,151.554428 C130.833561,154.523254 127.530872,155.502535 120.875008,155.502435 C114.219142,155.502335 110.916451,154.522954 104.909033,151.553947 C98.775826,148.522771 95.3337255,147.502051 88.5000075,147.501948 C81.6662886,147.501845 78.2241865,148.522463 72.0909779,151.553454 C66.0835615,154.52228 62.780872,155.501561 56.1250075,155.501461 C49.4691422,155.501361 46.166451,154.52198 40.159033,151.552973 C34.025826,148.521798 30.5837255,147.501077 23.7500075,147.500974 C16.9162886,147.500871 13.4741865,148.521489 7.34097785,151.552481 C4.50332096,152.954832 2.26915079,153.91327 -1.27897692e-13,154.534261 L-2.27373675e-12,155.570533 C2.42545278,154.934179 4.78246931,153.932328 7.78402215,152.44898 C13.7914385,149.480154 17.094128,148.500874 23.7499925,148.500974 C30.4058578,148.501074 33.708549,149.480455 39.715967,152.449462 C45.849174,155.480637 49.2912745,156.501358 56.1249925,156.501461 C62.9587114,156.501564 66.4008135,155.480946 72.5340221,152.449954 C78.5414385,149.481128 81.844128,148.501848 88.4999925,148.501948 C95.1558578,148.502048 98.458549,149.481428 104.465967,152.450436 C110.599174,155.481611 114.041274,156.502332 120.874992,156.502435 C127.708711,156.502538 131.150814,155.48192 137.284022,152.450928 C143.291439,149.482102 146.594128,148.502822 153.249992,148.502922 C159.905858,148.503022 163.208549,149.482402 169.215967,152.45141 C175.349174,155.482585 178.791274,156.503306 185.624992,156.503409 C192.458711,156.503511 195.900814,155.482893 202.034022,152.451902 C208.041439,149.483076 211.344128,148.503795 217.999992,148.503896 C224.655858,148.503996 227.958549,149.483376 233.965967,152.452384 C240.099174,155.483559 243.541274,156.50428 250.374992,156.504382 C257.208711,156.504485 260.650814,155.483867 266.784022,152.452876 C272.791439,149.48405 276.094128,148.504769 282.749992,148.504869 C289.405858,148.50497 292.708549,149.48435 298.715967,152.453357 C304.849174,155.484533 308.291274,156.505254 315.124992,156.505356 C321.958711,156.505459 325.400814,155.484841 331.534022,152.45385 C337.541439,149.485024 340.844128,148.505743 347.499992,148.505843 C354.155858,148.505943 357.458549,149.485324 363.465967,152.454331 C369.599174,155.485507 373.041274,156.506227 379.874992,156.50633 C386.708711,156.506433 390.150814,155.485815 396.284022,152.454824 C402.291439,149.485998 405.594128,148.506717 412.249992,148.506817 C418.905858,148.506917 422.208549,149.486298 428.215967,152.455305 C430.804179,153.73446 432.913148,154.655586 435,155.29307 L435,154.244858 L435,154.244858 Z M435,164.244858 C433.061277,163.628499 431.079739,162.755186 428.659033,161.558816 C422.525826,158.527641 419.083726,157.50692 412.250008,157.506817 C405.416289,157.506714 401.974186,158.527332 395.840978,161.558324 C389.833561,164.52715 386.530872,165.50643 379.875008,165.50633 C373.219142,165.50623 369.916451,164.52685 363.909033,161.557842 C357.775826,158.526667 354.333726,157.505946 347.500008,157.505843 C340.666289,157.505741 337.224186,158.526358 331.090978,161.55735 C325.083561,164.526176 321.780872,165.505456 315.125008,165.505356 C308.469142,165.505256 305.166451,164.525876 299.159033,161.556868 C293.025826,158.525693 289.583726,157.504972 282.750008,157.504869 C275.916289,157.504767 272.474186,158.525385 266.340978,161.556376 C260.333561,164.525202 257.030872,165.504483 250.375008,165.504382 C243.719142,165.504282 240.416451,164.524902 234.409033,161.555895 C228.275826,158.524719 224.833726,157.503998 218.000008,157.503896 C211.166289,157.503793 207.724186,158.524411 201.590978,161.555402 C195.583561,164.524228 192.280872,165.503509 185.625008,165.503409 C178.969142,165.503308 175.666451,164.523928 169.659033,161.554921 C163.525826,158.523745 160.083726,157.503024 153.250008,157.502922 C146.416289,157.502819 142.974186,158.523437 136.840978,161.554428 C130.833561,164.523254 127.530872,165.502535 120.875008,165.502435 C114.219142,165.502335 110.916451,164.522954 104.909033,161.553947 C98.775826,158.522771 95.3337255,157.502051 88.5000075,157.501948 C81.6662886,157.501845 78.2241865,158.522463 72.0909779,161.553454 C66.0835615,164.52228 62.780872,165.501561 56.1250075,165.501461 C49.4691422,165.501361 46.166451,164.52198 40.159033,161.552973 C34.025826,158.521798 30.5837255,157.501077 23.7500075,157.500974 C16.9162886,157.500871 13.4741865,158.521489 7.34097785,161.552481 C4.50332096,162.954832 2.26915079,163.91327 0,164.534261 L1.42108547e-14,165.570533 C2.42545278,164.934179 4.78246931,163.932328 7.78402215,162.44898 C13.7914385,159.480154 17.094128,158.500874 23.7499925,158.500974 C30.4058578,158.501074 33.708549,159.480455 39.715967,162.449462 C45.849174,165.480637 49.2912745,166.501358 56.1249925,166.501461 C62.9587114,166.501564 66.4008135,165.480946 72.5340221,162.449954 C78.5414385,159.481128 81.844128,158.501848 88.4999925,158.501948 C95.1558578,158.502048 98.458549,159.481428 104.465967,162.450436 C110.599174,165.481611 114.041274,166.502332 120.874992,166.502435 C127.708711,166.502538 131.150814,165.48192 137.284022,162.450928 C143.291439,159.482102 146.594128,158.502822 153.249992,158.502922 C159.905858,158.503022 163.208549,159.482402 169.215967,162.45141 C175.349174,165.482585 178.791274,166.503306 185.624992,166.503409 C192.458711,166.503511 195.900814,165.482893 202.034022,162.451902 C208.041439,159.483076 211.344128,158.503795 217.999992,158.503896 C224.655858,158.503996 227.958549,159.483376 233.965967,162.452384 C240.099174,165.483559 243.541274,166.50428 250.374992,166.504382 C257.208711,166.504485 260.650814,165.483867 266.784022,162.452876 C272.791439,159.48405 276.094128,158.504769 282.749992,158.504869 C289.405858,158.50497 292.708549,159.48435 298.715967,162.453357 C304.849174,165.484533 308.291274,166.505254 315.124992,166.505356 C321.958711,166.505459 325.400814,165.484841 331.534022,162.45385 C337.541439,159.485024 340.844128,158.505743 347.499992,158.505843 C354.155858,158.505943 357.458549,159.485324 363.465967,162.454331 C369.599174,165.485507 373.041274,166.506227 379.874992,166.50633 C386.708711,166.506433 390.150814,165.485815 396.284022,162.454824 C402.291439,159.485998 405.594128,158.506717 412.249992,158.506817 C418.905858,158.506917 422.208549,159.486298 428.215967,162.455305 C430.804179,163.73446 432.913148,164.655586 435,165.29307 L435,164.244858 L435,164.244858 Z M435,174.244858 C433.061277,173.628499 431.079739,172.755186 428.659033,171.558816 C422.525826,168.527641 419.083726,167.50692 412.250008,167.506817 C405.416289,167.506714 401.974186,168.527332 395.840978,171.558324 C389.833561,174.52715 386.530872,175.50643 379.875008,175.50633 C373.219142,175.50623 369.916451,174.52685 363.909033,171.557842 C357.775826,168.526667 354.333726,167.505946 347.500008,167.505843 C340.666289,167.505741 337.224186,168.526358 331.090978,171.55735 C325.083561,174.526176 321.780872,175.505456 315.125008,175.505356 C308.469142,175.505256 305.166451,174.525876 299.159033,171.556868 C293.025826,168.525693 289.583726,167.504972 282.750008,167.504869 C275.916289,167.504767 272.474186,168.525385 266.340978,171.556376 C260.333561,174.525202 257.030872,175.504483 250.375008,175.504382 C243.719142,175.504282 240.416451,174.524902 234.409033,171.555895 C228.275826,168.524719 224.833726,167.503998 218.000008,167.503896 C211.166289,167.503793 207.724186,168.524411 201.590978,171.555402 C195.583561,174.524228 192.280872,175.503509 185.625008,175.503409 C178.969142,175.503308 175.666451,174.523928 169.659033,171.554921 C163.525826,168.523745 160.083726,167.503024 153.250008,167.502922 C146.416289,167.502819 142.974186,168.523437 136.840978,171.554428 C130.833561,174.523254 127.530872,175.502535 120.875008,175.502435 C114.219142,175.502335 110.916451,174.522954 104.909033,171.553947 C98.775826,168.522771 95.3337255,167.502051 88.5000075,167.501948 C81.6662886,167.501845 78.2241865,168.522463 72.0909779,171.553454 C66.0835615,174.52228 62.780872,175.501561 56.1250075,175.501461 C49.4691422,175.501361 46.166451,174.52198 40.159033,171.552973 C34.025826,168.521798 30.5837255,167.501077 23.7500075,167.500974 C16.9162886,167.500871 13.4741865,168.521489 7.34097785,171.552481 C4.50332096,172.954832 2.26915079,173.91327 -1.27897692e-13,174.534261 L-2.27373675e-12,175.570533 C2.42545278,174.934179 4.78246931,173.932328 7.78402215,172.44898 C13.7914385,169.480154 17.094128,168.500874 23.7499925,168.500974 C30.4058578,168.501074 33.708549,169.480455 39.715967,172.449462 C45.849174,175.480637 49.2912745,176.501358 56.1249925,176.501461 C62.9587114,176.501564 66.4008135,175.480946 72.5340221,172.449954 C78.5414385,169.481128 81.844128,168.501848 88.4999925,168.501948 C95.1558578,168.502048 98.458549,169.481428 104.465967,172.450436 C110.599174,175.481611 114.041274,176.502332 120.874992,176.502435 C127.708711,176.502538 131.150814,175.48192 137.284022,172.450928 C143.291439,169.482102 146.594128,168.502822 153.249992,168.502922 C159.905858,168.503022 163.208549,169.482402 169.215967,172.45141 C175.349174,175.482585 178.791274,176.503306 185.624992,176.503409 C192.458711,176.503511 195.900814,175.482893 202.034022,172.451902 C208.041439,169.483076 211.344128,168.503795 217.999992,168.503896 C224.655858,168.503996 227.958549,169.483376 233.965967,172.452384 C240.099174,175.483559 243.541274,176.50428 250.374992,176.504382 C257.208711,176.504485 260.650814,175.483867 266.784022,172.452876 C272.791439,169.48405 276.094128,168.504769 282.749992,168.504869 C289.405858,168.50497 292.708549,169.48435 298.715967,172.453357 C304.849174,175.484533 308.291274,176.505254 315.124992,176.505356 C321.958711,176.505459 325.400814,175.484841 331.534022,172.45385 C337.541439,169.485024 340.844128,168.505743 347.499992,168.505843 C354.155858,168.505943 357.458549,169.485324 363.465967,172.454331 C369.599174,175.485507 373.041274,176.506227 379.874992,176.50633 C386.708711,176.506433 390.150814,175.485815 396.284022,172.454824 C402.291439,169.485998 405.594128,168.506717 412.249992,168.506817 C418.905858,168.506917 422.208549,169.486298 428.215967,172.455305 C430.804179,173.73446 432.913148,174.655586 435,175.29307 L435,174.244858 L435,174.244858 Z M435,184.244858 C433.061277,183.628499 431.079739,182.755186 428.659033,181.558816 C422.525826,178.527641 419.083726,177.50692 412.250008,177.506817 C405.416289,177.506714 401.974186,178.527332 395.840978,181.558324 C389.833561,184.52715 386.530872,185.50643 379.875008,185.50633 C373.219142,185.50623 369.916451,184.52685 363.909033,181.557842 C357.775826,178.526667 354.333726,177.505946 347.500008,177.505843 C340.666289,177.505741 337.224186,178.526358 331.090978,181.55735 C325.083561,184.526176 321.780872,185.505456 315.125008,185.505356 C308.469142,185.505256 305.166451,184.525876 299.159033,181.556868 C293.025826,178.525693 289.583726,177.504972 282.750008,177.504869 C275.916289,177.504767 272.474186,178.525385 266.340978,181.556376 C260.333561,184.525202 257.030872,185.504483 250.375008,185.504382 C243.719142,185.504282 240.416451,184.524902 234.409033,181.555895 C228.275826,178.524719 224.833726,177.503998 218.000008,177.503896 C211.166289,177.503793 207.724186,178.524411 201.590978,181.555402 C195.583561,184.524228 192.280872,185.503509 185.625008,185.503409 C178.969142,185.503308 175.666451,184.523928 169.659033,181.554921 C163.525826,178.523745 160.083726,177.503024 153.250008,177.502922 C146.416289,177.502819 142.974186,178.523437 136.840978,181.554428 C130.833561,184.523254 127.530872,185.502535 120.875008,185.502435 C114.219142,185.502335 110.916451,184.522954 104.909033,181.553947 C98.775826,178.522771 95.3337255,177.502051 88.5000075,177.501948 C81.6662886,177.501845 78.2241865,178.522463 72.0909779,181.553454 C66.0835615,184.52228 62.780872,185.501561 56.1250075,185.501461 C49.4691422,185.501361 46.166451,184.52198 40.159033,181.552973 C34.025826,178.521798 30.5837255,177.501077 23.7500075,177.500974 C16.9162886,177.500871 13.4741865,178.521489 7.34097785,181.552481 C4.50332096,182.954832 2.26915079,183.91327 -1.27897692e-13,184.534261 L-2.27373675e-12,185.570533 C2.42545278,184.934179 4.78246931,183.932328 7.78402215,182.44898 C13.7914385,179.480154 17.094128,178.500874 23.7499925,178.500974 C30.4058578,178.501074 33.708549,179.480455 39.715967,182.449462 C45.849174,185.480637 49.2912745,186.501358 56.1249925,186.501461 C62.9587114,186.501564 66.4008135,185.480946 72.5340221,182.449954 C78.5414385,179.481128 81.844128,178.501848 88.4999925,178.501948 C95.1558578,178.502048 98.458549,179.481428 104.465967,182.450436 C110.599174,185.481611 114.041274,186.502332 120.874992,186.502435 C127.708711,186.502538 131.150814,185.48192 137.284022,182.450928 C143.291439,179.482102 146.594128,178.502822 153.249992,178.502922 C159.905858,178.503022 163.208549,179.482402 169.215967,182.45141 C175.349174,185.482585 178.791274,186.503306 185.624992,186.503409 C192.458711,186.503511 195.900814,185.482893 202.034022,182.451902 C208.041439,179.483076 211.344128,178.503795 217.999992,178.503896 C224.655858,178.503996 227.958549,179.483376 233.965967,182.452384 C240.099174,185.483559 243.541274,186.50428 250.374992,186.504382 C257.208711,186.504485 260.650814,185.483867 266.784022,182.452876 C272.791439,179.48405 276.094128,178.504769 282.749992,178.504869 C289.405858,178.50497 292.708549,179.48435 298.715967,182.453357 C304.849174,185.484533 308.291274,186.505254 315.124992,186.505356 C321.958711,186.505459 325.400814,185.484841 331.534022,182.45385 C337.541439,179.485024 340.844128,178.505743 347.499992,178.505843 C354.155858,178.505943 357.458549,179.485324 363.465967,182.454331 C369.599174,185.485507 373.041274,186.506227 379.874992,186.50633 C386.708711,186.506433 390.150814,185.485815 396.284022,182.454824 C402.291439,179.485998 405.594128,178.506717 412.249992,178.506817 C418.905858,178.506917 422.208549,179.486298 428.215967,182.455305 C430.804179,183.73446 432.913148,184.655586 435,185.29307 L435,184.244858 L435,184.244858 Z M435,194.244858 C433.061277,193.628499 431.079739,192.755186 428.659033,191.558816 C422.525826,188.527641 419.083726,187.50692 412.250008,187.506817 C405.416289,187.506714 401.974186,188.527332 395.840978,191.558324 C389.833561,194.52715 386.530872,195.50643 379.875008,195.50633 C373.219142,195.50623 369.916451,194.52685 363.909033,191.557842 C357.775826,188.526667 354.333726,187.505946 347.500008,187.505843 C340.666289,187.505741 337.224186,188.526358 331.090978,191.55735 C325.083561,194.526176 321.780872,195.505456 315.125008,195.505356 C308.469142,195.505256 305.166451,194.525876 299.159033,191.556868 C293.025826,188.525693 289.583726,187.504972 282.750008,187.504869 C275.916289,187.504767 272.474186,188.525385 266.340978,191.556376 C260.333561,194.525202 257.030872,195.504483 250.375008,195.504382 C243.719142,195.504282 240.416451,194.524902 234.409033,191.555895 C228.275826,188.524719 224.833726,187.503998 218.000008,187.503896 C211.166289,187.503793 207.724186,188.524411 201.590978,191.555402 C195.583561,194.524228 192.280872,195.503509 185.625008,195.503409 C178.969142,195.503308 175.666451,194.523928 169.659033,191.554921 C163.525826,188.523745 160.083726,187.503024 153.250008,187.502922 C146.416289,187.502819 142.974186,188.523437 136.840978,191.554428 C130.833561,194.523254 127.530872,195.502535 120.875008,195.502435 C114.219142,195.502335 110.916451,194.522954 104.909033,191.553947 C98.775826,188.522771 95.3337255,187.502051 88.5000075,187.501948 C81.6662886,187.501845 78.2241865,188.522463 72.0909779,191.553454 C66.0835615,194.52228 62.780872,195.501561 56.1250075,195.501461 C49.4691422,195.501361 46.166451,194.52198 40.159033,191.552973 C34.025826,188.521798 30.5837255,187.501077 23.7500075,187.500974 C16.9162886,187.500871 13.4741865,188.521489 7.34097785,191.552481 C4.50332096,192.954832 2.26915079,193.91327 -1.27897692e-13,194.534261 L-2.27373675e-12,195.570533 C2.42545278,194.934179 4.78246931,193.932328 7.78402215,192.44898 C13.7914385,189.480154 17.094128,188.500874 23.7499925,188.500974 C30.4058578,188.501074 33.708549,189.480455 39.715967,192.449462 C45.849174,195.480637 49.2912745,196.501358 56.1249925,196.501461 C62.9587114,196.501564 66.4008135,195.480946 72.5340221,192.449954 C78.5414385,189.481128 81.844128,188.501848 88.4999925,188.501948 C95.1558578,188.502048 98.458549,189.481428 104.465967,192.450436 C110.599174,195.481611 114.041274,196.502332 120.874992,196.502435 C127.708711,196.502538 131.150814,195.48192 137.284022,192.450928 C143.291439,189.482102 146.594128,188.502822 153.249992,188.502922 C159.905858,188.503022 163.208549,189.482402 169.215967,192.45141 C175.349174,195.482585 178.791274,196.503306 185.624992,196.503409 C192.458711,196.503511 195.900814,195.482893 202.034022,192.451902 C208.041439,189.483076 211.344128,188.503795 217.999992,188.503896 C224.655858,188.503996 227.958549,189.483376 233.965967,192.452384 C240.099174,195.483559 243.541274,196.50428 250.374992,196.504382 C257.208711,196.504485 260.650814,195.483867 266.784022,192.452876 C272.791439,189.48405 276.094128,188.504769 282.749992,188.504869 C289.405858,188.50497 292.708549,189.48435 298.715967,192.453357 C304.849174,195.484533 308.291274,196.505254 315.124992,196.505356 C321.958711,196.505459 325.400814,195.484841 331.534022,192.45385 C337.541439,189.485024 340.844128,188.505743 347.499992,188.505843 C354.155858,188.505943 357.458549,189.485324 363.465967,192.454331 C369.599174,195.485507 373.041274,196.506227 379.874992,196.50633 C386.708711,196.506433 390.150814,195.485815 396.284022,192.454824 C402.291439,189.485998 405.594128,188.506717 412.249992,188.506817 C418.905858,188.506917 422.208549,189.486298 428.215967,192.455305 C430.804179,193.73446 432.913148,194.655586 435,195.29307 L435,194.244858 L435,194.244858 Z M435,204.244858 C433.061277,203.628499 431.079739,202.755186 428.659033,201.558816 C422.525826,198.527641 419.083726,197.50692 412.250008,197.506817 C405.416289,197.506714 401.974186,198.527332 395.840978,201.558324 C389.833561,204.52715 386.530872,205.50643 379.875008,205.50633 C373.219142,205.50623 369.916451,204.52685 363.909033,201.557842 C357.775826,198.526667 354.333726,197.505946 347.500008,197.505843 C340.666289,197.505741 337.224186,198.526358 331.090978,201.55735 C325.083561,204.526176 321.780872,205.505456 315.125008,205.505356 C308.469142,205.505256 305.166451,204.525876 299.159033,201.556868 C293.025826,198.525693 289.583726,197.504972 282.750008,197.504869 C275.916289,197.504767 272.474186,198.525385 266.340978,201.556376 C260.333561,204.525202 257.030872,205.504483 250.375008,205.504382 C243.719142,205.504282 240.416451,204.524902 234.409033,201.555895 C228.275826,198.524719 224.833726,197.503998 218.000008,197.503896 C211.166289,197.503793 207.724186,198.524411 201.590978,201.555402 C195.583561,204.524228 192.280872,205.503509 185.625008,205.503409 C178.969142,205.503308 175.666451,204.523928 169.659033,201.554921 C163.525826,198.523745 160.083726,197.503024 153.250008,197.502922 C146.416289,197.502819 142.974186,198.523437 136.840978,201.554428 C130.833561,204.523254 127.530872,205.502535 120.875008,205.502435 C114.219142,205.502335 110.916451,204.522954 104.909033,201.553947 C98.775826,198.522771 95.3337255,197.502051 88.5000075,197.501948 C81.6662886,197.501845 78.2241865,198.522463 72.0909779,201.553454 C66.0835615,204.52228 62.780872,205.501561 56.1250075,205.501461 C49.4691422,205.501361 46.166451,204.52198 40.159033,201.552973 C34.025826,198.521798 30.5837255,197.501077 23.7500075,197.500974 C16.9162886,197.500871 13.4741865,198.521489 7.34097785,201.552481 C4.50332096,202.954832 2.26915079,203.91327 0,204.534261 L4.26325641e-14,205.570533 C2.42545278,204.934179 4.78246931,203.932328 7.78402215,202.44898 C13.7914385,199.480154 17.094128,198.500874 23.7499925,198.500974 C30.4058578,198.501074 33.708549,199.480455 39.715967,202.449462 C45.849174,205.480637 49.2912745,206.501358 56.1249925,206.501461 C62.9587114,206.501564 66.4008135,205.480946 72.5340221,202.449954 C78.5414385,199.481128 81.844128,198.501848 88.4999925,198.501948 C95.1558578,198.502048 98.458549,199.481428 104.465967,202.450436 C110.599174,205.481611 114.041274,206.502332 120.874992,206.502435 C127.708711,206.502538 131.150814,205.48192 137.284022,202.450928 C143.291439,199.482102 146.594128,198.502822 153.249992,198.502922 C159.905858,198.503022 163.208549,199.482402 169.215967,202.45141 C175.349174,205.482585 178.791274,206.503306 185.624992,206.503409 C192.458711,206.503511 195.900814,205.482893 202.034022,202.451902 C208.041439,199.483076 211.344128,198.503795 217.999992,198.503896 C224.655858,198.503996 227.958549,199.483376 233.965967,202.452384 C240.099174,205.483559 243.541274,206.50428 250.374992,206.504382 C257.208711,206.504485 260.650814,205.483867 266.784022,202.452876 C272.791439,199.48405 276.094128,198.504769 282.749992,198.504869 C289.405858,198.50497 292.708549,199.48435 298.715967,202.453357 C304.849174,205.484533 308.291274,206.505254 315.124992,206.505356 C321.958711,206.505459 325.400814,205.484841 331.534022,202.45385 C337.541439,199.485024 340.844128,198.505743 347.499992,198.505843 C354.155858,198.505943 357.458549,199.485324 363.465967,202.454331 C369.599174,205.485507 373.041274,206.506227 379.874992,206.50633 C386.708711,206.506433 390.150814,205.485815 396.284022,202.454824 C402.291439,199.485998 405.594128,198.506717 412.249992,198.506817 C418.905858,198.506917 422.208549,199.486298 428.215967,202.455305 C430.804179,203.73446 432.913148,204.655586 435,205.29307 L435,204.244858 L435,204.244858 Z M435,214.244858 C433.061277,213.628499 431.079739,212.755186 428.659033,211.558816 C422.525826,208.527641 419.083726,207.50692 412.250008,207.506817 C405.416289,207.506714 401.974186,208.527332 395.840978,211.558324 C389.833561,214.52715 386.530872,215.50643 379.875008,215.50633 C373.219142,215.50623 369.916451,214.52685 363.909033,211.557842 C357.775826,208.526667 354.333726,207.505946 347.500008,207.505843 C340.666289,207.505741 337.224186,208.526358 331.090978,211.55735 C325.083561,214.526176 321.780872,215.505456 315.125008,215.505356 C308.469142,215.505256 305.166451,214.525876 299.159033,211.556868 C293.025826,208.525693 289.583726,207.504972 282.750008,207.504869 C275.916289,207.504767 272.474186,208.525385 266.340978,211.556376 C260.333561,214.525202 257.030872,215.504483 250.375008,215.504382 C243.719142,215.504282 240.416451,214.524902 234.409033,211.555895 C228.275826,208.524719 224.833726,207.503998 218.000008,207.503896 C211.166289,207.503793 207.724186,208.524411 201.590978,211.555402 C195.583561,214.524228 192.280872,215.503509 185.625008,215.503409 C178.969142,215.503308 175.666451,214.523928 169.659033,211.554921 C163.525826,208.523745 160.083726,207.503024 153.250008,207.502922 C146.416289,207.502819 142.974186,208.523437 136.840978,211.554428 C130.833561,214.523254 127.530872,215.502535 120.875008,215.502435 C114.219142,215.502335 110.916451,214.522954 104.909033,211.553947 C98.775826,208.522771 95.3337255,207.502051 88.5000075,207.501948 C81.6662886,207.501845 78.2241865,208.522463 72.0909779,211.553454 C66.0835615,214.52228 62.780872,215.501561 56.1250075,215.501461 C49.4691422,215.501361 46.166451,214.52198 40.159033,211.552973 C34.025826,208.521798 30.5837255,207.501077 23.7500075,207.500974 C16.9162886,207.500871 13.4741865,208.521489 7.34097785,211.552481 C4.50332096,212.954832 2.26915079,213.91327 -1.27897692e-13,214.534261 L-2.27373675e-12,215.570533 C2.42545278,214.934179 4.78246931,213.932328 7.78402215,212.44898 C13.7914385,209.480154 17.094128,208.500874 23.7499925,208.500974 C30.4058578,208.501074 33.708549,209.480455 39.715967,212.449462 C45.849174,215.480637 49.2912745,216.501358 56.1249925,216.501461 C62.9587114,216.501564 66.4008135,215.480946 72.5340221,212.449954 C78.5414385,209.481128 81.844128,208.501848 88.4999925,208.501948 C95.1558578,208.502048 98.458549,209.481428 104.465967,212.450436 C110.599174,215.481611 114.041274,216.502332 120.874992,216.502435 C127.708711,216.502538 131.150814,215.48192 137.284022,212.450928 C143.291439,209.482102 146.594128,208.502822 153.249992,208.502922 C159.905858,208.503022 163.208549,209.482402 169.215967,212.45141 C175.349174,215.482585 178.791274,216.503306 185.624992,216.503409 C192.458711,216.503511 195.900814,215.482893 202.034022,212.451902 C208.041439,209.483076 211.344128,208.503795 217.999992,208.503896 C224.655858,208.503996 227.958549,209.483376 233.965967,212.452384 C240.099174,215.483559 243.541274,216.50428 250.374992,216.504382 C257.208711,216.504485 260.650814,215.483867 266.784022,212.452876 C272.791439,209.48405 276.094128,208.504769 282.749992,208.504869 C289.405858,208.50497 292.708549,209.48435 298.715967,212.453357 C304.849174,215.484533 308.291274,216.505254 315.124992,216.505356 C321.958711,216.505459 325.400814,215.484841 331.534022,212.45385 C337.541439,209.485024 340.844128,208.505743 347.499992,208.505843 C354.155858,208.505943 357.458549,209.485324 363.465967,212.454331 C369.599174,215.485507 373.041274,216.506227 379.874992,216.50633 C386.708711,216.506433 390.150814,215.485815 396.284022,212.454824 C402.291439,209.485998 405.594128,208.506717 412.249992,208.506817 C418.905858,208.506917 422.208549,209.486298 428.215967,212.455305 C430.804179,213.73446 432.913148,214.655586 435,215.29307 L435,214.244858 L435,214.244858 Z M428.659033,221.558816 C431.079739,222.755186 433.061277,223.628499 435,224.244858 L435,225.29307 C432.913148,224.655586 430.804179,223.73446 428.215967,222.455305 C422.208549,219.486298 418.905858,218.506917 412.249992,218.506817 C405.594128,218.506717 402.291439,219.485998 396.284022,222.454824 C390.150814,225.485815 386.708711,226.506433 379.874992,226.50633 C373.041274,226.506227 369.599174,225.485507 363.465967,222.454331 C357.458549,219.485324 354.155858,218.505943 347.499992,218.505843 C340.844128,218.505743 337.541439,219.485024 331.534022,222.45385 C325.400814,225.484841 321.958711,226.505459 315.124992,226.505356 C308.291274,226.505254 304.849174,225.484533 298.715967,222.453357 C292.708549,219.48435 289.405858,218.50497 282.749992,218.504869 C276.094128,218.504769 272.791439,219.48405 266.784022,222.452876 C260.650814,225.483867 257.208711,226.504485 250.374992,226.504382 C243.541274,226.50428 240.099174,225.483559 233.965967,222.452384 C227.958549,219.483376 224.655858,218.503996 217.999992,218.503896 C211.344128,218.503795 208.041439,219.483076 202.034022,222.451902 C195.900814,225.482893 192.458711,226.503511 185.624992,226.503409 C178.791274,226.503306 175.349174,225.482585 169.215967,222.45141 C163.208549,219.482402 159.905858,218.503022 153.249992,218.502922 C146.594128,218.502822 143.291439,219.482102 137.284022,222.450928 C131.150814,225.48192 127.708711,226.502538 120.874992,226.502435 C114.041274,226.502332 110.599174,225.481611 104.465967,222.450436 C98.458549,219.481428 95.1558578,218.502048 88.4999925,218.501948 C81.844128,218.501848 78.5414385,219.481128 72.5340221,222.449954 C66.4008135,225.480946 62.9587114,226.501564 56.1249925,226.501461 C49.2912745,226.501358 45.849174,225.480637 39.715967,222.449462 C33.708549,219.480455 30.4058578,218.501074 23.7499925,218.500974 C17.094128,218.500874 13.7914385,219.480154 7.78402215,222.44898 C4.78246931,223.932328 2.42545278,224.934179 0,225.570533 L2.6302871e-10,224.534261 C2.26915079,223.91327 4.50332096,222.954832 7.34097785,221.552481 C13.4741865,218.521489 16.9162886,217.500871 23.7500075,217.500974 C30.5837255,217.501077 34.025826,218.521798 40.159033,221.552973 C46.166451,224.52198 49.4691422,225.501361 56.1250075,225.501461 C62.780872,225.501561 66.0835615,224.52228 72.0909779,221.553454 C78.2241865,218.522463 81.6662886,217.501845 88.5000075,217.501948 C95.3337255,217.502051 98.775826,218.522771 104.909033,221.553947 C110.916451,224.522954 114.219142,225.502335 120.875008,225.502435 C127.530872,225.502535 130.833561,224.523254 136.840978,221.554428 C142.974186,218.523437 146.416289,217.502819 153.250008,217.502922 C160.083726,217.503024 163.525826,218.523745 169.659033,221.554921 C175.666451,224.523928 178.969142,225.503308 185.625008,225.503409 C192.280872,225.503509 195.583561,224.524228 201.590978,221.555402 C207.724186,218.524411 211.166289,217.503793 218.000008,217.503896 C224.833726,217.503998 228.275826,218.524719 234.409033,221.555895 C240.416451,224.524902 243.719142,225.504282 250.375008,225.504382 C257.030872,225.504483 260.333561,224.525202 266.340978,221.556376 C272.474186,218.525385 275.916289,217.504767 282.750008,217.504869 C289.583726,217.504972 293.025826,218.525693 299.159033,221.556868 C305.166451,224.525876 308.469142,225.505256 315.125008,225.505356 C321.780872,225.505456 325.083561,224.526176 331.090978,221.55735 C337.224186,218.526358 340.666289,217.505741 347.500008,217.505843 C354.333726,217.505946 357.775826,218.526667 363.909033,221.557842 C369.916451,224.52685 373.219142,225.50623 379.875008,225.50633 C386.530872,225.50643 389.833561,224.52715 395.840978,221.558324 C401.974186,218.527332 405.416289,217.506714 412.250008,217.506817 C419.083726,217.50692 422.525826,218.527641 428.659033,221.558816 Z" transform="translate(0 -27)" opacity=".3"/>
</svg>
