<?xml version="1.0" encoding="UTF-8"?>
<svg width="99px" height="48px" viewBox="0 0 99 48" version="1.1" xmlns="http://www.w3.org/2000/svg" xmlns:xlink="http://www.w3.org/1999/xlink">
    <defs></defs>
    <g id="Modules" stroke="none" stroke-width="1" fill="none" fill-rule="evenodd">
        <g id="design_modules" transform="translate(-135.000000, -2248.000000)">
            <g id="footer" transform="translate(0.000000, 2200.000000)">
                <g id="powered_by_ticketyl" transform="translate(135.000000, 48.000000)">
                    <path d="M87.4252565,45.7854926 L87.4252565,42.0422619 C89.3909685,41.5533753 90.8614387,40.6151631 91.8388995,39.2287142 C92.7088285,37.9932502 93.143793,36.5019102 93.143793,34.7532424 L93.143793,24.4931572 L89.8761642,24.4931572 L89.8761642,34.8229278 C89.8761642,36.0003206 89.5215695,36.9937004 88.8138685,37.8030672 C88.1065396,38.6131599 87.0989401,39.0178433 85.7914421,39.0178433 C84.3165069,39.0178433 83.2370955,38.5750507 82.5532078,37.6891025 C81.9891307,36.9784567 81.7070921,36.0003206 81.7070921,34.7532424 L81.7070921,24.4931572 L78.4978803,24.4931572 L78.4978803,35.5753123 C78.4978803,37.3236172 79.0440974,38.7561601 80.1380201,39.8751188 C81.075296,40.8303894 82.414421,41.5533753 84.1579998,42.0422619 L84.1579998,45.7854926 L84.1579998,48 L87.4252565,48 L87.4252565,45.7854926 Z M0.0219528695,36.3835903 L0.0219528695,20.2296452 L3.17274777,20.2296452 L3.17274777,24.6071219 L9.50001128,24.6071219 L9.50001128,27.6235557 L3.17274777,27.6235557 L3.17274777,36.9679313 C3.17274777,37.443026 3.36957943,37.8484353 3.764359,38.1845221 C4.13458113,38.5438374 4.70796031,38.7227692 5.48486864,38.7227692 L9.50001128,38.7227692 L9.50001128,41.739203 L5.43017251,41.739203 C3.55041155,41.739203 2.1517533,41.2045854 1.23531402,40.1338984 C0.42566242,39.203671 0.0219528695,37.9540522 0.0219528695,36.3835903 Z M11.8515729,41.739203 L11.8515729,24.6071219 L15.0607848,24.6071219 L15.0607848,41.739203 L11.8515729,41.739203 Z M11.5479535,20.6477576 C11.5479535,20.1479827 11.744041,19.7237002 12.1369602,19.3741844 C12.5287631,19.0141433 12.9800992,18.8337597 13.4917127,18.8337597 C13.9783967,18.8337597 14.4189424,19.0141433 14.8118615,19.3741844 C15.1921299,19.7237002 15.3826361,20.1773812 15.3826361,20.7348643 C15.3826361,21.3061394 15.2155711,21.7532873 14.8829293,22.0784858 C14.5145676,22.4399788 14.074394,22.6196364 13.5635246,22.6196364 C13.02847,22.6196364 12.564483,22.4399788 12.172308,22.0784858 C11.7555756,21.7532873 11.5479535,21.2767408 11.5479535,20.6477576 Z M17.4986695,33.2343186 C17.4986695,30.9107463 18.2424625,28.9239868 19.7315368,27.273314 C21.3616304,25.4966995 23.5223137,24.6071219 26.2135867,24.6071219 L29.4283797,24.6071219 L29.4283797,27.6235557 L26.6414816,27.6235557 C25.354076,27.6235557 24.1630398,28.035498 23.0672567,28.8572049 C21.6496223,29.934062 20.9411771,31.4159654 20.9411771,33.3029152 C20.9411771,34.6352854 21.4170707,35.8213888 22.3707182,36.8637662 C23.4903146,38.1035854 24.9674822,38.7227692 26.8018491,38.7227692 L29.4283797,38.7227692 L29.4283797,41.739203 L26.2135867,41.739203 C23.4750592,41.739203 21.278656,40.7636075 19.624005,38.8116907 C18.2071147,37.1385153 17.4986695,35.2798753 17.4986695,33.2343186 Z M31.6314804,16.6956522 L34.8406923,16.6956522 L34.8406923,30.9249012 L36.4975758,30.9249012 C37.3124366,30.8555787 37.9304657,30.6403525 38.3509189,30.2792225 C38.7349081,29.9424097 39.2628932,29.1569973 39.9356184,27.9233481 L41.9467245,24.6071219 L45.6046679,24.6071219 C44.676322,26.1322157 43.7364415,27.6576725 42.7846544,29.1816775 C41.8440298,30.7310887 41.0403315,31.5520697 40.3750479,31.6446206 C41.8373323,31.8649281 42.9375803,32.4340255 43.67542,33.350098 C44.2815425,34.1398658 44.5851618,35.1027582 44.5851618,36.2395012 L44.5851618,41.739203 L41.3759499,41.739203 L41.3759499,37.2241703 C41.3759499,36.1480391 41.1538167,35.3252434 40.7095501,34.7579607 C40.2656557,34.2135436 39.5036306,33.941698 38.4238471,33.941698 L34.8406923,33.941698 L34.8406923,41.739203 L31.6314804,41.739203 L31.6314804,16.6956522 Z M50.7256399,33.5449994 L59.5146014,28.8270805 C59.0000113,28.3280315 58.5817905,27.9973888 58.2588229,27.8344266 C57.5060999,27.4290173 56.5550569,27.2254053 55.4079265,27.2254053 C53.638302,27.2254053 52.2281091,27.8699952 51.1758597,29.1577232 C50.2196076,30.3191464 49.7418536,31.7466081 49.7418536,33.4408342 C49.7418536,34.9154787 50.2430488,36.1977625 51.2472996,37.2880486 C52.3456872,38.4727003 53.7789491,39.0639373 55.5474574,39.0639373 C57.3271282,39.0639373 58.6841132,38.5881167 59.6158079,37.6364755 C60.4518773,36.8133168 61.0486977,35.4951015 61.4070132,33.6843701 L64.6512008,34.119178 C64.6512008,35.9672926 63.8828504,37.6872878 62.3472658,39.2791635 C60.5128989,41.1849864 58.1795693,42.1377164 55.3461608,42.1377164 C52.9648326,42.1377164 50.8804262,41.2953216 49.0948021,39.6090803 C47.308806,37.922839 46.41618,35.8997849 46.41618,33.5395552 C46.41618,30.5630453 47.421547,28.2028155 49.4337693,26.4585031 C51.1602323,24.9591783 53.160548,24.2086085 55.4343443,24.2086085 C57.4220092,24.2086085 59.1134964,24.6514011 60.5062014,25.5373493 C61.8758372,26.4461629 63.0482693,27.8220865 64.0246138,29.6629423 L52.1231819,36.063473 L50.7256399,33.5449994 Z M66.9127185,36.3835903 L66.9127185,20.2296452 L70.0635134,20.2296452 L70.0635134,24.6071219 L76.3911489,24.6071219 L76.3911489,27.6235557 L70.0635134,27.6235557 L70.0635134,36.9679313 C70.0635134,37.443026 70.260345,37.8484353 70.6554967,38.1845221 C71.0253467,38.5438374 71.599098,38.7227692 72.3756342,38.7227692 L76.3911489,38.7227692 L76.3911489,41.739203 L72.3209381,41.739203 C70.4408051,41.739203 69.0425189,41.2045854 68.1260796,40.1338984 C67.316428,39.203671 66.9127185,37.9540522 66.9127185,36.3835903 Z M95.7907881,41.739203 L95.7907881,16.6956522 L99,16.6956522 L99,41.739203 L95.7907881,41.739203 Z M73.6351336,48 L73.6351336,45.3991379 L76.9027624,45.3991379 L76.9027624,48 L73.6351336,48 Z M68.3742587,48 L68.3742587,45.3991379 L71.6418875,45.3991379 L71.6418875,48 L68.3742587,48 Z M63.1126395,48 L63.1126395,45.3991379 L66.3798963,45.3991379 L66.3798963,48 L63.1126395,48 Z M57.8517646,48 L57.8517646,45.3991379 L61.1193934,45.3991379 L61.1193934,48 L57.8517646,48 Z M52.5901455,48 L52.5901455,45.3991379 L55.8574022,45.3991379 L55.8574022,48 L52.5901455,48 Z M47.3288984,48 L47.3288984,45.3991379 L50.5965272,45.3991379 L50.5965272,48 L47.3288984,48 Z M42.0676514,48 L42.0676514,45.3991379 L45.3352802,45.3991379 L45.3352802,48 L42.0676514,48 Z M36.8064043,48 L36.8064043,45.3991379 L40.0740331,45.3991379 L40.0740331,48 L36.8064043,48 Z M31.5455294,48 L31.5455294,45.3991379 L34.8131582,45.3991379 L34.8131582,48 L31.5455294,48 Z M26.2839102,48 L26.2839102,45.3991379 L29.5515391,45.3991379 L29.5515391,48 L26.2839102,48 Z M21.0230353,48 L21.0230353,45.3991379 L24.2906641,45.3991379 L24.2906641,48 L21.0230353,48 Z M15.7614162,48 L15.7614162,45.3991379 L19.029045,45.3991379 L19.029045,48 L15.7614162,48 Z M10.5001691,48 L10.5001691,45.3991379 L13.7677979,45.3991379 L13.7677979,48 L10.5001691,48 Z M5.23892209,48 L5.23892209,45.3991379 L8.50655091,45.3991379 L8.50655091,48 L5.23892209,48 Z M0,48 L0,45.3991379 L3.24530387,45.3991379 L3.24530387,48 L0,48 Z" id="ticketyl_logo" fill="#1A1918"></path>
                    <path d="M7.91655476,3.20380435 C7.91655476,4.11685239 7.59758701,4.81691333 6.95964196,5.30400815 C6.32169691,5.79110298 5.42316686,6.03464674 4.26402487,6.03464674 L3.21329709,6.03464674 L3.21329709,9.51358696 L2.0625,9.51358696 L2.0625,0.574728261 L4.48292649,0.574728261 C6.77202345,0.574728261 7.91655476,1.45107819 7.91655476,3.20380435 Z M3.21329709,5.06861413 L4.13268389,5.06861413 C5.04165136,5.06861413 5.70043441,4.9249335 6.10905281,4.63756793 C6.51767121,4.35020237 6.72197734,3.88859014 6.72197734,3.25271739 C6.72197734,2.67798626 6.5322645,2.24796338 6.15283313,1.96263587 C5.77340176,1.67730836 5.18133092,1.53464674 4.37660284,1.53464674 L3.21329709,1.53464674 L3.21329709,5.06861413 Z M15.6218918,6.14470109 C15.6218918,7.24117396 15.3383649,8.09714366 14.7713026,8.71263587 C14.2042404,9.32812808 13.4203719,9.63586957 12.4196738,9.63586957 C11.798407,9.63586957 11.2480313,9.49422696 10.7685302,9.2109375 C10.289029,8.92764804 9.92002707,8.52106243 9.66151339,7.99116848 C9.4029997,7.46127452 9.2737448,6.84579155 9.2737448,6.14470109 C9.2737448,5.05230432 9.55310217,4.20142968 10.1118253,3.59205163 C10.6705484,2.98267358 11.4544168,2.67798913 12.4634541,2.67798913 C13.4307956,2.67798913 14.1990284,2.98878765 14.7681755,3.61039402 C15.3373225,4.23200039 15.6218918,5.07676096 15.6218918,6.14470109 Z M10.4370506,6.14470109 C10.4370506,6.98845531 10.6069582,7.62941357 10.9467786,8.06759511 C11.286599,8.50577665 11.787983,8.72486413 12.4509455,8.72486413 C13.1055688,8.72486413 13.6038256,8.50577665 13.9457308,8.06759511 C14.287636,7.62941357 14.458586,6.98845531 14.458586,6.14470109 C14.458586,5.30094687 14.2865936,4.66610267 13.9426036,4.24014946 C13.5986137,3.81419624 13.095145,3.60122283 12.4321825,3.60122283 C11.1020879,3.60122283 10.4370506,4.44904043 10.4370506,6.14470109 Z M23.0145122,9.51358696 L21.8386978,5.73505435 C21.7302888,5.42119408 21.5718473,4.82812936 21.3633686,3.95584239 L21.3133339,3.95584239 C21.1382117,4.75068332 20.9839398,5.34782409 20.8505133,5.74728261 L19.6184099,9.51358696 L18.3425262,9.51358696 L16.4599723,2.80027174 L17.623278,2.80027174 C18.0569139,4.45109521 18.3873478,5.70651744 18.6145897,6.56657609 C18.8418315,7.42663474 18.9762983,8.03396562 19.0179941,8.38858696 L19.0680287,8.38858696 L19.1555894,8.00951087 C19.2848462,7.42662752 19.4099316,6.95176814 19.5308493,6.58491848 L20.750444,2.80027174 L21.9762931,2.80027174 L23.1583619,6.58491848 C23.2000576,6.72758224 23.2448799,6.87941496 23.29283,7.0404212 C23.3407801,7.20142744 23.3856024,7.36039324 23.4272981,7.51732337 C23.4689939,7.6742535 23.5065195,7.82710523 23.5398761,7.97588315 C23.5732327,8.12466107 23.5982498,8.25815158 23.6149281,8.3763587 L23.6712171,8.3763587 C23.7087433,8.06657454 23.8609305,7.40217901 24.1277833,6.38315217 L25.0909504,2.80027174 L26.2417475,2.80027174 L24.3341763,9.51358696 L23.0145122,9.51358696 Z M30.394624,9.63586957 C29.3647388,9.63586957 28.5568957,9.33118511 27.9710703,8.72180707 C27.385245,8.11242902 27.0923367,7.27378251 27.0923367,6.20584239 C27.0923367,5.12975005 27.3654398,4.27276134 27.9116542,3.63485054 C28.4578686,2.99693975 29.1958724,2.67798913 30.1256877,2.67798913 C30.9887898,2.67798913 31.6767595,2.95006521 32.1896173,3.49422554 C32.7024751,4.03838587 32.9589001,4.77513122 32.9589001,5.7044837 L32.9589001,6.37092391 L28.2556424,6.37092391 C28.2764903,7.13315599 28.4745422,7.71195454 28.849804,8.10733696 C29.2250658,8.50271937 29.7566787,8.70040761 30.4446586,8.70040761 C30.8115813,8.70040761 31.1597356,8.66881825 31.4891321,8.60563859 C31.8185285,8.54245892 32.2042085,8.41915853 32.6461835,8.2357337 L32.6461835,9.2017663 C32.2667521,9.36073449 31.9102588,9.47282576 31.5766927,9.53804348 C31.2431267,9.6032612 30.8491077,9.63586957 30.394624,9.63586957 Z M30.113179,3.5767663 C29.5753038,3.5767663 29.1500135,3.74592222 28.8372953,4.08423913 C28.5245771,4.42255604 28.3390338,4.89333937 28.2806598,5.49660326 L31.7768314,5.49660326 C31.7684922,4.86888273 31.6204745,4.39198533 31.3327738,4.06589674 C31.0450731,3.73980815 30.6385456,3.5767663 30.113179,3.5767663 Z M37.8998224,2.67798913 C38.2042014,2.67798913 38.473135,2.70244541 38.7066312,2.7513587 L38.5690359,3.76630435 C38.3146918,3.70923885 38.0666058,3.68070652 37.8247704,3.68070652 C37.4620173,3.68070652 37.1253292,3.77853163 36.8146958,3.97418478 C36.5040624,4.16983793 36.2611883,4.439876 36.0860661,4.78430707 C35.9109439,5.12873814 35.8233842,5.51086747 35.8233842,5.93070652 L35.8233842,9.51358696 L34.6976044,9.51358696 L34.6976044,2.80027174 L35.6232455,2.80027174 L35.7483322,4.02921196 L35.7983668,4.02921196 C36.0610501,3.58491626 36.3716788,3.24864245 36.7302623,3.02038043 C37.0888458,2.79211842 37.4786953,2.67798913 37.8998224,2.67798913 Z M42.9095423,9.63586957 C41.8796572,9.63586957 41.071814,9.33118511 40.4859887,8.72180707 C39.9001633,8.11242902 39.607255,7.27378251 39.607255,6.20584239 C39.607255,5.12975005 39.8803581,4.27276134 40.4265725,3.63485054 C40.9727869,2.99693975 41.7107907,2.67798913 42.640606,2.67798913 C43.5037082,2.67798913 44.1916778,2.95006521 44.7045356,3.49422554 C45.2173934,4.03838587 45.4738184,4.77513122 45.4738184,5.7044837 L45.4738184,6.37092391 L40.7705608,6.37092391 C40.7914087,7.13315599 40.9894605,7.71195454 41.3647223,8.10733696 C41.7399841,8.50271937 42.271597,8.70040761 42.959577,8.70040761 C43.3264996,8.70040761 43.674654,8.66881825 44.0040504,8.60563859 C44.3334469,8.54245892 44.7191268,8.41915853 45.1611018,8.2357337 L45.1611018,9.2017663 C44.7816705,9.36073449 44.4251771,9.47282576 44.0916111,9.53804348 C43.758045,9.6032612 43.3640261,9.63586957 42.9095423,9.63586957 Z M42.6280974,3.5767663 C42.0902221,3.5767663 41.6649318,3.74592222 41.3522137,4.08423913 C41.0394955,4.42255604 40.8539522,4.89333937 40.7955781,5.49660326 L44.2917497,5.49660326 C44.2834105,4.86888273 44.1353928,4.39198533 43.8476921,4.06589674 C43.5599914,3.73980815 43.1534639,3.5767663 42.6280974,3.5767663 Z M49.6454579,9.63586957 C48.7531687,9.63586957 48.0610296,9.33424215 47.5690197,8.73097826 C47.0770098,8.12771437 46.8310085,7.2737827 46.8310085,6.16915761 C46.8310085,5.07268474 47.0780521,4.21671503 47.5721468,3.60122283 C48.0662415,2.98573062 48.7615078,2.67798913 49.6579666,2.67798913 C50.5794427,2.67798913 51.28826,3.00814887 51.7844394,3.66847826 L51.8657458,3.66847826 C51.853237,3.58695611 51.836559,3.42289525 51.8157111,3.17629076 C51.7948632,2.92968627 51.7844394,2.76358738 51.7844394,2.67798913 L51.7844394,0 L52.9102192,0 L52.9102192,9.51358696 L52.0033411,9.51358696 L51.8344741,8.61480978 L51.7844394,8.61480978 C51.3049383,9.29551971 50.5919515,9.63586957 49.6454579,9.63586957 Z M49.8268335,8.72486413 C50.5106439,8.72486413 51.0099431,8.54246106 51.324746,8.17764946 C51.639549,7.81283785 51.7969481,7.21467807 51.7969481,6.38315217 L51.7969481,6.18138587 C51.7969481,5.24795729 51.6374642,4.58254275 51.3184917,4.18512228 C50.9995192,3.78770182 50.4981352,3.58899457 49.8143249,3.58899457 C49.2347539,3.58899457 48.7865312,3.81419612 48.4696435,4.26460598 C48.1527557,4.71501584 47.9943142,5.35801213 47.9943142,6.19361413 C47.9943142,7.02514003 48.1517134,7.65488916 48.4665163,8.08288043 C48.7813193,8.51087171 49.2347538,8.72486413 49.8268335,8.72486413 Z M61.6725383,2.69021739 C62.5773362,2.69021739 63.2757296,2.99490184 63.7677396,3.60427989 C64.2597495,4.21365794 64.5057507,5.06453258 64.5057507,6.15692935 C64.5057507,7.26563054 64.25558,8.12261926 63.7552309,8.7279212 C63.2548818,9.33322314 62.5606579,9.63586957 61.6725383,9.63586957 C61.2097155,9.63586957 60.7969337,9.55434864 60.4341806,9.39130435 C60.0714275,9.22826005 59.7753921,8.98573531 59.5460655,8.66372283 L59.4585048,8.66372283 C59.329248,9.15285571 59.252112,9.43614092 59.2270945,9.51358696 L58.4202857,9.51358696 L58.4202857,0 L59.5460655,0 L59.5460655,2.3111413 C59.5460655,2.77174143 59.5252179,3.23233465 59.4835221,3.69293478 L59.5460655,3.69293478 C60.0088883,3.02445318 60.7177055,2.69021739 61.6725383,2.69021739 Z M61.4849084,3.60122283 C60.7927588,3.60122283 60.2965868,3.792797 59.9963774,4.17595109 C59.6961679,4.55910518 59.5460655,5.20719652 59.5460655,6.12024457 L59.5460655,6.16915761 C59.5460655,7.08628176 59.6992951,7.74150619 60.0057589,8.13485054 C60.3122227,8.5281949 60.8136066,8.72486413 61.5099257,8.72486413 C62.1270229,8.72486413 62.5867117,8.50373862 62.8890059,8.06148098 C63.1913001,7.61922333 63.342445,6.98030309 63.342445,6.14470109 C63.342445,5.29687076 63.1902578,4.66100755 62.8858787,4.23709239 C62.5814997,3.81317723 62.1145143,3.60122283 61.4849084,3.60122283 Z M65.2249989,2.80027174 L66.432085,2.80027174 L67.9143617,6.62160326 C68.2270798,7.45312916 68.4188774,8.06249806 68.4897602,8.44972826 L68.5397949,8.44972826 C68.5773211,8.29891229 68.6627961,8.01664609 68.7962225,7.6029212 C68.9296489,7.1891963 69.0422258,6.85801755 69.1339564,6.609375 L70.5286725,2.80027174 L71.7420129,2.80027174 L68.7837138,10.4429348 C68.4960131,11.1847863 68.1541131,11.7167103 67.7580034,12.0387228 C67.3618937,12.3607353 66.8719759,12.5217391 66.2882354,12.5217391 C65.9755172,12.5217391 65.6648885,12.4870927 65.3563399,12.4177989 L65.3563399,11.5434783 C65.5648187,11.5923915 65.8149894,11.6168478 66.1068597,11.6168478 C66.4654432,11.6168478 66.7698177,11.5200417 67.0199922,11.3264266 C67.2701667,11.1328115 67.4744729,10.8342411 67.6329167,10.4307065 L67.9894137,9.53804348 L65.2249989,2.80027174 Z M72.6613997,8.83491848 C72.6613997,8.56589539 72.7291543,8.35903605 72.8646655,8.21433424 C73.0001767,8.06963243 73.1930166,7.99728261 73.4431912,7.99728261 C73.6975353,7.99728261 73.8955871,8.06963243 74.0373527,8.21433424 C74.1791183,8.35903605 74.25,8.56589539 74.25,8.83491848 C74.25,9.09986546 74.1791183,9.30876282 74.0373527,9.46161685 C73.8955871,9.61447087 73.6975353,9.69089674 73.4431912,9.69089674 C73.1971862,9.69089674 73.0053886,9.61548988 72.8677926,9.46467391 C72.7301966,9.31385794 72.6613997,9.10394156 72.6613997,8.83491848 Z M72.6613997,3.47894022 C72.6613997,3.20991713 72.7270695,3.00101977 72.8584111,2.85224185 C72.9897528,2.70346393 73.1846775,2.62907609 73.4431912,2.62907609 C73.7058744,2.62907609 73.9060111,2.70244492 74.043607,2.84918478 C74.181203,2.99592465 74.25,3.20584103 74.25,3.47894022 C74.25,3.73981109 74.1791183,3.94667043 74.0373527,4.09952446 C73.8955871,4.25237848 73.6975353,4.32880435 73.4431912,4.32880435 C73.1971862,4.32880435 73.0053886,4.25339749 72.8677926,4.10258152 C72.7301966,3.95176555 72.6613997,3.74388719 72.6613997,3.47894022 Z" id="p" fill="#9A9A9A"></path>
                </g>
            </g>
        </g>
    </g>
</svg>