<?xml version="1.0" encoding="UTF-8"?>
<svg width="168px" height="171px" viewBox="0 0 168 171" version="1.1" xmlns="http://www.w3.org/2000/svg" xmlns:xlink="http://www.w3.org/1999/xlink">
    <!-- Generator: Sketch 46.2 (44496) - http://www.bohemiancoding.com/sketch -->
    <title>calendar_emptystate</title>
    <desc>Created with Sketch.</desc>
    <defs></defs>
    <g id="Working" stroke="none" stroke-width="1" fill="none" fill-rule="evenodd">
        <g id="event_list_empty" transform="translate(-636.000000, -472.000000)">
            <g id="calendar_emptystate" transform="translate(636.000000, 472.000000)">
                <path d="M120,110 C107.297451,110 97,99.7025492 97,87 C97,74.2974508 107.297451,64 120,64 C132.702549,64 143,74.2974508 143,87 C143,99.7025492 132.702549,110 120,110 Z M122,77.5 C122,81.6421356 125.357864,85 129.5,85 C132.228472,85 134.683969,83.5299672 136.001561,81.2437227 C134.290032,76.4871375 130.512863,72.7099679 125.756277,70.998439 C123.470033,72.3160309 122,74.7715275 122,77.5 Z M118.211948,70.0929109 C109.663549,70.9864519 103,78.2150482 103,87 C103,96.3888407 110.611159,104 120,104 C128.784952,104 136.013548,97.3364505 136.907089,88.7880517 C134.760524,90.1970822 132.204696,91 129.5,91 C122.044156,91 116,84.9558441 116,77.5 C116,74.7953038 116.802918,72.2394761 118.211948,70.0929109 Z" id="Combined-Shape" fill="#9A9A9A"></path>
                <path d="M49,110 C36.2974508,110 26,99.7025492 26,87 C26,74.2974508 36.2974508,64 49,64 C61.7025492,64 72,74.2974508 72,87 C72,99.7025492 61.7025492,110 49,110 Z M51,77.5 C51,81.6421356 54.3578644,85 58.5,85 C61.2284725,85 63.6839691,83.5299672 65.001561,81.2437227 C63.2900321,76.4871375 59.5128625,72.7099679 54.7562773,70.998439 C52.4700328,72.3160309 51,74.7715275 51,77.5 Z M47.2119483,70.0929109 C38.6635495,70.9864519 32,78.2150482 32,87 C32,96.3888407 39.6111593,104 49,104 C57.7849518,104 65.0135481,97.3364505 65.9070891,88.7880517 C63.7605239,90.1970822 61.2046962,91 58.5,91 C51.0441559,91 45,84.9558441 45,77.5 C45,74.7953038 45.8029178,72.2394761 47.2119483,70.0929109 L47.2119483,70.0929109 Z" id="Combined-Shape" fill="#9A9A9A"></path>
                <polygon id="Rectangle-7" fill="#E0E0E0" points="165 12 165 48 3 48 3 12"></polygon>
                <path d="M168,9 L168,171 L0,171 L0,9 L43,9 L43,0 L49,0 L49,24 L43,24 L43,15 L6,15 L6,45 L162,45 L162,15 L135,15 L135,9 L168,9 Z M6,51 L6,165 L162,165 L162,51 L6,51 Z" id="Combined-Shape" fill="#9A9A9A"></path>
                <polygon id="Combined-Shape" fill="#9A9A9A" fill-rule="nonzero" points="123 9 95 9 95 15 123 15 123 24 129 24 129 0 123 0"></polygon>
                <polygon id="Combined-Shape" fill="#9A9A9A" fill-rule="nonzero" points="83 9 55 9 55 15 83 15 83 24 89 24 89 0 83 0"></polygon>
                <path d="M122.1289,137.371541 C100.490913,156.876153 67.5090866,156.876153 45.8710999,137.371541 L43.1213203,140.12132 L38.8786797,135.87868 L48.8786797,125.87868 L53.1213203,130.12132 L50.1202307,133.12241 C69.4049859,150.29253 98.5950141,150.29253 117.879769,133.12241 L114.87868,130.12132 L119.12132,125.87868 L129.12132,135.87868 L124.87868,140.12132 L122.1289,137.371541 L122.1289,137.371541 Z" id="Combined-Shape" fill="#9A9A9A"></path>
            </g>
        </g>
    </g>
</svg>