<?xml version="1.0" encoding="UTF-8"?>
<svg width="32px" height="30px" viewBox="0 0 32 30" version="1.1" xmlns="http://www.w3.org/2000/svg" xmlns:xlink="http://www.w3.org/1999/xlink">
    <!-- Generator: Sketch 45.2 (43514) - http://www.bohemiancoding.com/sketch -->
    <title>icn_promotion</title>
    <desc>Created with Sketch.</desc>
    <defs></defs>
    <g id="Symbols" stroke="none" stroke-width="1" fill="none" fill-rule="evenodd">
        <g id="bottom_toolbar_event_setup" transform="translate(-897.000000, -25.000000)" fill="#9A9A9A">
            <g id="bottom_toolbar" transform="translate(1.000000, 0.000000)">
                <path d="M910.763932,43.618034 L908.30925,43.618034 L911.30925,54.618034 L903.236204,54.618034 L900.219696,43.5575052 C897.828897,43.1828392 896,41.1140175 896,38.618034 L896,36.618034 C896,33.8566102 898.238576,31.618034 901,31.618034 L910.763932,31.618034 L924,25 L924,32.7180521 C926.28224,33.1813224 928,35.1990761 928,37.618034 C928,40.0369919 926.28224,42.0547455 924,42.5180159 L924,50.236068 L910.763932,43.618034 Z M910,33.618034 L901,33.618034 C899.343146,33.618034 898,34.9611797 898,36.618034 L898,38.618034 C898,40.2748882 899.343146,41.618034 901,41.618034 L910,41.618034 L910,33.618034 Z M926,37.618034 C926,36.3118152 925.165192,35.2005761 924,34.7887397 L924,40.4473283 C925.165192,40.0354919 926,38.9242528 926,37.618034 Z M904.763796,52.618034 L908.69075,52.618034 L906.236204,43.618034 L902.30925,43.618034 L904.763796,52.618034 Z M912,33.236068 L912,42 L922,47 L922,28.236068 L912,33.236068 Z" id="icn_promotion"></path>
            </g>
        </g>
    </g>
</svg>