<?xml version="1.0" encoding="UTF-8"?>
<svg width="32px" height="32px" viewBox="0 0 32 32" version="1.1" xmlns="http://www.w3.org/2000/svg" xmlns:xlink="http://www.w3.org/1999/xlink">
    <!-- Generator: Sketch 45.2 (43514) - http://www.bohemiancoding.com/sketch -->
    <title>icn_visual_editor_white</title>
    <desc>Created with Sketch.</desc>
    <defs></defs>
    <g id="Symbols" stroke="none" stroke-width="1" fill="none" fill-rule="evenodd">
        <g id="bottom_toolbar_visual_editor" transform="translate(-609.000000, -24.000000)" fill="#FFFFFF">
            <g id="bottom_toolbar">
                <path d="M610.314749,42.9885086 C611.439941,41.887367 612.676302,40.9225037 614,40.1071226 L614,29 C614,27.3431458 612.656854,26 611,26 L609,26 L609,24 L611,24 C612.635599,24 614.087771,24.7853431 615,25.9995125 C615.912229,24.7853431 617.364401,24 619,24 L621,24 L621,26 L619,26 C617.343146,26 616,27.3431458 616,28.9999998 L616,39.0205575 C618.766673,37.7072447 621.827544,37 625,37 C630.717852,37 636.073229,39.2974414 639.996965,43.2999557 L640.683231,44 L639.996965,44.7000443 C636.073229,48.7025586 630.717852,51 625,51 C621.827544,51 618.766673,50.2927553 616,48.9794425 L616,51 C616,52.6568542 617.343146,54 619,54 L621,54 L621,56 L619,56 C617.364401,56 615.912229,55.2146569 615,54.0004875 C614.087771,55.2146569 612.635599,56 611,56 L609,56 L609,54 L611,54 C612.656854,54 613.999999,52.6568548 614,51.0000012 L614,47.8928774 C612.552922,47.0014962 611.210222,45.9314682 610.003035,44.7000443 L609.316769,44 L610.003035,43.2999557 C610.105816,43.1951112 610.20966,43.0913686 610.314547,42.988744 L610.314749,42.9885086 Z M628.838431,39.3882467 L628.838431,39.3882467 C630.159328,40.4888513 631,42.146251 631,44 C631,45.853749 630.159328,47.5111487 628.838431,48.6117533 C632.208578,47.9205134 635.312057,46.3271482 637.845622,44 C635.312057,41.6728518 632.208578,40.0794866 628.838431,39.3882467 Z M621.161569,48.6117533 L621.161569,48.6117533 C619.840672,47.5111487 619,45.853749 619,44 C619,42.146251 619.840672,40.4888513 621.161569,39.3882467 C617.791422,40.0794866 614.687943,41.6728518 612.154378,44 C614.687943,46.3271482 617.791422,47.9205134 621.161569,48.6117533 Z M625,48 C627.209139,48 629,46.209139 629,44 C629,41.790861 627.209139,40 625,40 C622.790861,40 621,41.790861 621,44 C621,46.209139 622.790861,48 625,48 Z" id="icn_visual_editor_white"></path>
            </g>
        </g>
    </g>
</svg>