<?xml version="1.0" encoding="UTF-8"?>
<svg width="22px" height="22px" viewBox="0 0 22 22" version="1.1" xmlns="http://www.w3.org/2000/svg" xmlns:xlink="http://www.w3.org/1999/xlink">
    <!-- Generator: Sketch 45.2 (43514) - http://www.bohemiancoding.com/sketch -->
    <title>icn_more</title>
    <desc>Created with Sketch.</desc>
    <defs></defs>
    <g id="Event" stroke="none" stroke-width="1" fill="none" fill-rule="evenodd">
        <g id="event_setup_sub-events" transform="translate(-489.000000, -205.000000)" fill="#292929">
            <path d="M500,227 C493.924868,227 489,222.075132 489,216 C489,209.924868 493.924868,205 500,205 C506.075132,205 511,209.924868 511,216 C511,222.075132 506.075132,227 500,227 Z M500,226 C505.522847,226 510,221.522847 510,216 C510,210.477153 505.522847,206 500,206 C494.477153,206 490,210.477153 490,216 C490,221.522847 494.477153,226 500,226 Z M500,217 C499.447715,217 499,216.552285 499,216 C499,215.447715 499.447715,215 500,215 C500.552285,215 501,215.447715 501,216 C501,216.552285 500.552285,217 500,217 Z M495,217 C494.447715,217 494,216.552285 494,216 C494,215.447715 494.447715,215 495,215 C495.552285,215 496,215.447715 496,216 C496,216.552285 495.552285,217 495,217 Z M505,217 C504.447715,217 504,216.552285 504,216 C504,215.447715 504.447715,215 505,215 C505.552285,215 506,215.447715 506,216 C506,216.552285 505.552285,217 505,217 Z" id="icn_more"></path>
        </g>
    </g>
</svg>