<?xml version="1.0" encoding="UTF-8"?>
<svg width="32px" height="30px" viewBox="0 0 32 30" version="1.1" xmlns="http://www.w3.org/2000/svg" xmlns:xlink="http://www.w3.org/1999/xlink">
    <!-- Generator: Sketch 45.2 (43514) - http://www.bohemiancoding.com/sketch -->
    <title>icn_promotion_white</title>
    <desc>Created with Sketch.</desc>
    <defs></defs>
    <g id="Symbols" stroke="none" stroke-width="1" fill="none" fill-rule="evenodd">
        <g id="bottom_toolbar_pr" transform="translate(-897.000000, -25.000000)" fill="#FFFFFF">
            <g id="bottom_toolbar">
                <path d="M911.763932,43.618034 L909.30925,43.618034 L912.30925,54.618034 L904.236204,54.618034 L901.219696,43.5575052 C898.828897,43.1828392 897,41.1140175 897,38.618034 L897,36.618034 C897,33.8566102 899.238576,31.618034 902,31.618034 L911.763932,31.618034 L925,25 L925,32.7180521 C927.28224,33.1813224 929,35.1990761 929,37.618034 C929,40.0369919 927.28224,42.0547455 925,42.5180159 L925,50.236068 L911.763932,43.618034 Z M911,33.618034 L902,33.618034 C900.343146,33.618034 899,34.9611797 899,36.618034 L899,38.618034 C899,40.2748882 900.343146,41.618034 902,41.618034 L911,41.618034 L911,33.618034 Z M927,37.618034 C927,36.3118152 926.165192,35.2005761 925,34.7887397 L925,40.4473283 C926.165192,40.0354919 927,38.9242528 927,37.618034 Z M905.763796,52.618034 L909.69075,52.618034 L907.236204,43.618034 L903.30925,43.618034 L905.763796,52.618034 Z M913,33.236068 L913,42 L923,47 L923,28.236068 L913,33.236068 Z" id="icn_promotion_white"></path>
            </g>
        </g>
    </g>
</svg>