<?xml version="1.0" encoding="UTF-8"?>
<svg width="18px" height="20px" viewBox="0 0 18 20" version="1.1" xmlns="http://www.w3.org/2000/svg" xmlns:xlink="http://www.w3.org/1999/xlink">
    <!-- Generator: Sketch 45.2 (43514) - http://www.bohemiancoding.com/sketch -->
    <title>icn_notifications</title>
    <desc>Created with Sketch.</desc>
    <defs></defs>
    <g id="Symbols" stroke="none" stroke-width="1" fill="none" fill-rule="evenodd">
        <g id="top_nav_logged_in" transform="translate(-1110.000000, -58.000000)" fill="#9A9A9A">
            <g id="top_nav">
                <g id="new_notification" transform="translate(1110.000000, 58.000000)">
                    <path d="M12.8571429,16.25 L12.8571429,16.25 C12.8571429,18.3210678 11.1302412,20 9,20 C6.86975882,20 5.14285714,18.3210678 5.14285714,16.25 L0,16.25 L0,14.375 C0,12.6599042 1.02444465,11.1342234 2.57142857,10.4210025 L2.57142857,6.25 C2.57142857,2.79822031 5.44959804,0 9,0 C12.550402,0 15.4285714,2.79822031 15.4285714,6.25 L15.4285714,10.4210025 C16.9755553,11.1342234 18,12.6599042 18,14.375 L18,16.25 L12.8571429,16.25 Z M16.7142857,15 L16.7142857,14.375 C16.7142857,13.0399069 15.8451566,11.8653306 14.5714847,11.4276571 L14.1428571,11.2803673 L14.1428571,6.25 C14.1428571,3.48857625 11.8403216,1.25 9,1.25 C6.15967843,1.25 3.85714286,3.48857625 3.85714286,6.25 L3.85714286,11.2803673 L3.42851534,11.4276571 C2.15484335,11.8653306 1.28571429,13.0399069 1.28571429,14.375 L1.28571429,15 L16.7142857,15 Z M9,18.75 C10.4201608,18.75 11.5714286,17.6307119 11.5714286,16.25 L6.42857143,16.25 C6.42857143,17.6307119 7.57983921,18.75 9,18.75 Z" id="icn_notifications"></path>
                </g>
            </g>
        </g>
    </g>
</svg>