<svg xmlns="http://www.w3.org/2000/svg" width="112" height="80" viewBox="0 0 112 80">
  <g fill="none" fill-rule="evenodd" stroke="#9A9A9A" stroke-width="2" transform="translate(0 1)">
    <rect width="78" height="12" x="17" fill="#E0E0E0"/>
    <rect width="78" height="40" x="17" y="38"/>
    <rect width="78" height="26" x="17" y="12" fill="#F7F7F7"/>
    <path d="M36 56L71 56M36 62L73 62"/>
    <rect width="38" height="6" x="37" y="44" fill="#E0E0E0"/>
    <rect width="22" height="6" x="36" y="68" fill="#E0E0E0"/>
    <path d="M112 78L0 78M23 4L23 4 23 4C24.1045695 4 25 4.8954305 25 6L25 6 25 6C25 7.1045695 24.1045695 8 23 8L23 8 23 8C21.8954305 8 21 7.1045695 21 6L21 6 21 6C21 4.8954305 21.8954305 4 23 4zM31 4L31 4 31 4C32.1045695 4 33 4.8954305 33 6L33 6 33 6C33 7.1045695 32.1045695 8 31 8L31 8 31 8C29.8954305 8 29 7.1045695 29 6L29 6 29 6C29 4.8954305 29.8954305 4 31 4zM39 4L39 4 39 4C40.1045695 4 41 4.8954305 41 6L41 6 41 6C41 7.1045695 40.1045695 8 39 8L39 8 39 8C37.8954305 8 37 7.1045695 37 6L37 6 37 6C37 4.8954305 37.8954305 4 39 4z"/>
  </g>
</svg>
